<svg xmlns="http://www.w3.org/2000/svg" xmlns:xlink="http://www.w3.org/1999/xlink" version="1.1" width="460.8pt" height="345.6pt" viewBox="0 0 460.8 345.6">
<defs>
<clipPath id="clip_0">
<path transform="matrix(1,0,0,-1,0,345.6)" d="M56.18 209.36H219.60727V320.16H56.18Z"/>
</clipPath>
<clipPath id="clip_1">
<path transform="matrix(1,0,0,-1,0,345.6)" d="M56.18 209.36H219.60727V320.16H56.18Z"/>
</clipPath>
<clipPath id="clip_2">
<path transform="matrix(1,0,0,-1,0,345.6)" d="M56.18 209.36H219.60727V320.16H56.18Z"/>
</clipPath>
<clipPath id="clip_3">
<path transform="matrix(1,0,0,-1,0,345.6)" d="M56.18 209.36H219.60727V320.16H56.18Z"/>
</clipPath>
<clipPath id="clip_4">
<path transform="matrix(1,0,0,-1,0,345.6)" d="M56.18 209.36H219.60727V320.16H56.18Z"/>
</clipPath>
<clipPath id="clip_5">
<path transform="matrix(1,0,0,-1,0,345.6)" d="M56.18 209.36H219.60727V320.16H56.18Z"/>
</clipPath>
<clipPath id="clip_6">
<path transform="matrix(1,0,0,-1,0,345.6)" d="M56.18 209.36H219.60727V320.16H56.18Z"/>
</clipPath>
<clipPath id="clip_7">
<path transform="matrix(1,0,0,-1,0,345.6)" d="M56.18 209.36H219.60727V320.16H56.18Z"/>
</clipPath>
<clipPath id="clip_8">
<path transform="matrix(1,0,0,-1,0,345.6)" d="M56.18 209.36H219.60727V320.16H56.18Z"/>
</clipPath>
<clipPath id="clip_9">
<path transform="matrix(0,-.01,-.01,-0,27.195626,70.267749)" d="M-1021-463H1794V1233H-1021Z"/>
</clipPath>
<clipPath id="clip_10">
<path transform="matrix(1,0,0,-1,0,345.6)" d="M56.18 209.36H219.60727V320.16H56.18Z"/>
</clipPath>
<clipPath id="clip_11">
<path transform="matrix(1,0,0,-1,0,345.6)" d="M281.18 209.36H444.60728V320.16H281.18Z"/>
</clipPath>
<clipPath id="clip_12">
<path transform="matrix(1,0,0,-1,0,345.6)" d="M281.18 209.36H444.60728V320.16H281.18Z"/>
</clipPath>
<clipPath id="clip_13">
<path transform="matrix(1,0,0,-1,0,345.6)" d="M281.18 209.36H444.60728V320.16H281.18Z"/>
</clipPath>
<clipPath id="clip_14">
<path transform="matrix(1,0,0,-1,0,345.6)" d="M281.18 209.36H444.60728V320.16H281.18Z"/>
</clipPath>
<clipPath id="clip_15">
<path transform="matrix(1,0,0,-1,0,345.6)" d="M281.18 209.36H444.60728V320.16H281.18Z"/>
</clipPath>
<clipPath id="clip_16">
<path transform="matrix(.01,0,0,-.01,259.44563,124.93533)" d="M-1021-463H1794V1233H-1021Z"/>
</clipPath>
<clipPath id="clip_17">
<path transform="matrix(1,0,0,-1,0,345.6)" d="M281.18 209.36H444.60728V320.16H281.18Z"/>
</clipPath>
<clipPath id="clip_18">
<path transform="matrix(1,0,0,-1,0,345.6)" d="M281.18 209.36H444.60728V320.16H281.18Z"/>
</clipPath>
<clipPath id="clip_19">
<path transform="matrix(1,0,0,-1,0,345.6)" d="M281.18 209.36H444.60728V320.16H281.18Z"/>
</clipPath>
<clipPath id="clip_20">
<path transform="matrix(1,0,0,-1,0,345.6)" d="M281.18 209.36H444.60728V320.16H281.18Z"/>
</clipPath>
<clipPath id="clip_21">
<path transform="matrix(1,0,0,-1,0,345.6)" d="M281.18 209.36H444.60728V320.16H281.18Z"/>
</clipPath>
<clipPath id="clip_22">
<path transform="matrix(1,0,0,-1,0,345.6)" d="M56.18 41.96H219.60727V152.76001H56.18Z"/>
</clipPath>
<clipPath id="clip_23">
<path transform="matrix(1,0,0,-1,0,345.6)" d="M56.18 41.96H219.60727V152.76001H56.18Z"/>
</clipPath>
<clipPath id="clip_24">
<path transform="matrix(1,0,0,-1,0,345.6)" d="M56.18 41.96H219.60727V152.76001H56.18Z"/>
</clipPath>
<clipPath id="clip_25">
<path transform="matrix(1,0,0,-1,0,345.6)" d="M56.18 41.96H219.60727V152.76001H56.18Z"/>
</clipPath>
<clipPath id="clip_26">
<path transform="matrix(1,0,0,-1,0,345.6)" d="M56.18 41.96H219.60727V152.76001H56.18Z"/>
</clipPath>
<clipPath id="clip_27">
<path transform="matrix(.01,0,0,-.01,24.89875,302.4805)" d="M-1021-463H1794V1233H-1021Z"/>
</clipPath>
<clipPath id="clip_28">
<path transform="matrix(1,0,0,-1,0,345.6)" d="M56.18 41.96H219.60727V152.76001H56.18Z"/>
</clipPath>
<clipPath id="clip_29">
<path transform="matrix(.01,0,0,-.01,24.89875,277.2587)" d="M-1021-463H1794V1233H-1021Z"/>
</clipPath>
<clipPath id="clip_30">
<path transform="matrix(1,0,0,-1,0,345.6)" d="M56.18 41.96H219.60727V152.76001H56.18Z"/>
</clipPath>
<clipPath id="clip_31">
<path transform="matrix(1,0,0,-1,0,345.6)" d="M56.18 41.96H219.60727V152.76001H56.18Z"/>
</clipPath>
<clipPath id="clip_32">
<path transform="matrix(1,0,0,-1,0,345.6)" d="M56.18 41.96H219.60727V152.76001H56.18Z"/>
</clipPath>
<clipPath id="clip_33">
<path transform="matrix(0,-.01,-.01,-0,18.820626,240.14331)" d="M-1021-463H1794V1233H-1021Z"/>
</clipPath>
<clipPath id="clip_34">
<path transform="matrix(1,0,0,-1,0,345.6)" d="M56.18 41.96H219.60727V152.76001H56.18Z"/>
</clipPath>
<clipPath id="clip_35">
<path transform="matrix(1,0,0,-1,0,345.6)" d="M56.18 41.96H219.60727V152.76001H56.18Z"/>
</clipPath>
<clipPath id="clip_36">
<path transform="matrix(1,0,0,-1,0,345.6)" d="M281.18 41.96H444.60728V152.76001H281.18Z"/>
</clipPath>
<clipPath id="clip_37">
<path transform="matrix(1,0,0,-1,0,345.6)" d="M281.18 41.96H444.60728V152.76001H281.18Z"/>
</clipPath>
<clipPath id="clip_38">
<path transform="matrix(1,0,0,-1,0,345.6)" d="M281.18 41.96H444.60728V152.76001H281.18Z"/>
</clipPath>
<clipPath id="clip_39">
<path transform="matrix(1,0,0,-1,0,345.6)" d="M281.18 41.96H444.60728V152.76001H281.18Z"/>
</clipPath>
<clipPath id="clip_40">
<path transform="matrix(1,0,0,-1,0,345.6)" d="M281.18 41.96H444.60728V152.76001H281.18Z"/>
</clipPath>
<clipPath id="clip_41">
<path transform="matrix(1,0,0,-1,0,345.6)" d="M281.18 41.96H444.60728V152.76001H281.18Z"/>
</clipPath>
<clipPath id="clip_42">
<path transform="matrix(1,0,0,-1,0,345.6)" d="M281.18 41.96H444.60728V152.76001H281.18Z"/>
</clipPath>
<clipPath id="clip_43">
<path transform="matrix(1,0,0,-1,0,345.6)" d="M281.18 41.96H444.60728V152.76001H281.18Z"/>
</clipPath>
<clipPath id="clip_44">
<path transform="matrix(1,0,0,-1,0,345.6)" d="M281.18 41.96H444.60728V152.76001H281.18Z"/>
</clipPath>
<clipPath id="clip_45">
<path transform="matrix(.01,0,0,-.01,259.44563,294.12535)" d="M-1021-463H1794V1233H-1021Z"/>
</clipPath>
<clipPath id="clip_46">
<path transform="matrix(1,0,0,-1,0,345.6)" d="M281.18 41.96H444.60728V152.76001H281.18Z"/>
</clipPath>
<clipPath id="clip_47">
<path transform="matrix(1,0,0,-1,0,345.6)" d="M281.18 41.96H444.60728V152.76001H281.18Z"/>
</clipPath>
<clipPath id="clip_48">
<path transform="matrix(0,-.01,-.01,-0,253.3675,236.11792)" d="M-1021-463H1794V1233H-1021Z"/>
</clipPath>
<clipPath id="clip_49">
<path transform="matrix(1,0,0,-1,0,345.6)" d="M281.18 41.96H444.60728V152.76001H281.18Z"/>
</clipPath>
</defs>
<path transform="matrix(1,0,0,-1,0,345.6)" d="M0 0H460.8V345.6H0Z" fill="#ffffff"/>
<path transform="matrix(1,0,0,-1,0,345.6)" d="M56.18 209.36H219.60727V320.16H56.18Z" fill="#ffffff"/>
<g clip-path="url(#clip_0)">
<path transform="matrix(1,0,0,-1,0,345.6)" stroke-width=".8" stroke-linecap="square" stroke-linejoin="round" fill="none" stroke="#bebebe" d="M63.608514 209.36V320.16"/>
</g>
<path transform="matrix(1,0,0,-1,0,345.6)" d="M63.608514 209.36V205.86"/>
<path transform="matrix(1,0,0,-1,0,345.6)" stroke-width=".8" stroke-linecap="butt" stroke-linejoin="round" fill="none" stroke="#000000" d="M63.608514 209.36V205.86"/>
<text xml:space="preserve" transform="matrix(1 0 -0 1 60.428827 150.83376)" font-size="10" font-family="DejaVuSans"><tspan y="0" x="0">0</tspan></text>
<g clip-path="url(#clip_1)">
<path transform="matrix(1,0,0,-1,0,345.6)" stroke-width=".8" stroke-linecap="square" stroke-linejoin="round" fill="none" stroke="#bebebe" d="M114.83963 209.36V320.16"/>
</g>
<path transform="matrix(1,0,0,-1,0,345.6)" d="M114.83963 209.36V205.86"/>
<path transform="matrix(1,0,0,-1,0,345.6)" stroke-width=".8" stroke-linecap="butt" stroke-linejoin="round" fill="none" stroke="#000000" d="M114.83963 209.36V205.86"/>
<text xml:space="preserve" transform="matrix(1 0 -0 1 108.480258 150.83376)" font-size="10" font-family="DejaVuSans"><tspan y="0" x="0 6.3600008">10</tspan></text>
<g clip-path="url(#clip_2)">
<path transform="matrix(1,0,0,-1,0,345.6)" stroke-width=".8" stroke-linecap="square" stroke-linejoin="round" fill="none" stroke="#bebebe" d="M166.07076 209.36V320.16"/>
</g>
<path transform="matrix(1,0,0,-1,0,345.6)" d="M166.07076 209.36V205.86"/>
<path transform="matrix(1,0,0,-1,0,345.6)" stroke-width=".8" stroke-linecap="butt" stroke-linejoin="round" fill="none" stroke="#000000" d="M166.07076 209.36V205.86"/>
<text xml:space="preserve" transform="matrix(1 0 -0 1 159.71138 150.83376)" font-size="10" font-family="DejaVuSans"><tspan y="0" x="0 6.3600008">20</tspan></text>
<g clip-path="url(#clip_3)">
<path transform="matrix(1,0,0,-1,0,345.6)" stroke-width=".8" stroke-linecap="square" stroke-linejoin="round" fill="none" stroke="#bebebe" d="M217.30187 209.36V320.16"/>
</g>
<path transform="matrix(1,0,0,-1,0,345.6)" d="M217.30187 209.36V205.86"/>
<path transform="matrix(1,0,0,-1,0,345.6)" stroke-width=".8" stroke-linecap="butt" stroke-linejoin="round" fill="none" stroke="#000000" d="M217.30187 209.36V205.86"/>
<text xml:space="preserve" transform="matrix(1 0 -0 1 210.94249 150.83376)" font-size="10" font-family="DejaVuSans"><tspan y="0" x="0 6.3600008">30</tspan></text>
<text xml:space="preserve" transform="matrix(1 0 -0 1 125.6202 164.50563)" font-size="10" font-family="DejaVuSans"><tspan y="0" x="0 5.813125 8.593125 18.333127">Time</tspan></text>
<g clip-path="url(#clip_4)">
<path transform="matrix(1,0,0,-1,0,345.6)" stroke-width=".8" stroke-linecap="square" stroke-linejoin="round" fill="none" stroke="#bebebe" d="M56.18 214.39636H219.60727"/>
</g>
<path transform="matrix(1,0,0,-1,0,345.6)" d="M56.18 214.39636H52.68"/>
<path transform="matrix(1,0,0,-1,0,345.6)" stroke-width=".8" stroke-linecap="butt" stroke-linejoin="round" fill="none" stroke="#000000" d="M56.18 214.39636H52.68"/>
<text xml:space="preserve" transform="matrix(1 0 -0 1 33.27375 135.00052)" font-size="10" font-family="DejaVuSans"><tspan y="0" x="0 6.3600008 9.540001">1.0</tspan></text>
<g clip-path="url(#clip_5)">
<path transform="matrix(1,0,0,-1,0,345.6)" stroke-width=".8" stroke-linecap="square" stroke-linejoin="round" fill="none" stroke="#bebebe" d="M56.18 237.86998H219.60727"/>
</g>
<path transform="matrix(1,0,0,-1,0,345.6)" d="M56.18 237.86998H52.68"/>
<path transform="matrix(1,0,0,-1,0,345.6)" stroke-width=".8" stroke-linecap="butt" stroke-linejoin="round" fill="none" stroke="#000000" d="M56.18 237.86998H52.68"/>
<text xml:space="preserve" transform="matrix(1 0 -0 1 33.27375 111.5269)" font-size="10" font-family="DejaVuSans"><tspan y="0" x="0 6.3600008 9.540001">1.2</tspan></text>
<g clip-path="url(#clip_6)">
<path transform="matrix(1,0,0,-1,0,345.6)" stroke-width=".8" stroke-linecap="square" stroke-linejoin="round" fill="none" stroke="#bebebe" d="M56.18 261.3436H219.60727"/>
</g>
<path transform="matrix(1,0,0,-1,0,345.6)" d="M56.18 261.3436H52.68"/>
<path transform="matrix(1,0,0,-1,0,345.6)" stroke-width=".8" stroke-linecap="butt" stroke-linejoin="round" fill="none" stroke="#000000" d="M56.18 261.3436H52.68"/>
<text xml:space="preserve" transform="matrix(1 0 -0 1 33.27375 88.05328)" font-size="10" font-family="DejaVuSans"><tspan y="0" x="0 6.3600008 9.540001">1.4</tspan></text>
<g clip-path="url(#clip_7)">
<path transform="matrix(1,0,0,-1,0,345.6)" stroke-width=".8" stroke-linecap="square" stroke-linejoin="round" fill="none" stroke="#bebebe" d="M56.18 284.81724H219.60727"/>
</g>
<path transform="matrix(1,0,0,-1,0,345.6)" d="M56.18 284.81724H52.68"/>
<path transform="matrix(1,0,0,-1,0,345.6)" stroke-width=".8" stroke-linecap="butt" stroke-linejoin="round" fill="none" stroke="#000000" d="M56.18 284.81724H52.68"/>
<text xml:space="preserve" transform="matrix(1 0 -0 1 33.27375 64.57965)" font-size="10" font-family="DejaVuSans"><tspan y="0" x="0 6.3600008 9.540001">1.6</tspan></text>
<g clip-path="url(#clip_8)">
<path transform="matrix(1,0,0,-1,0,345.6)" stroke-width=".8" stroke-linecap="square" stroke-linejoin="round" fill="none" stroke="#bebebe" d="M56.18 308.29084H219.60727"/>
</g>
<path transform="matrix(1,0,0,-1,0,345.6)" d="M56.18 308.29084H52.68"/>
<path transform="matrix(1,0,0,-1,0,345.6)" stroke-width=".8" stroke-linecap="butt" stroke-linejoin="round" fill="none" stroke="#000000" d="M56.18 308.29084H52.68"/>
<text xml:space="preserve" transform="matrix(1 0 -0 1 33.27375 41.10605)" font-size="10" font-family="DejaVuSans"><tspan y="0" x="0 6.3600008 9.540001">1.8</tspan></text>
<text xml:space="preserve" transform="matrix(0 -1 1 0 27.195626 101.74626)" font-size="10" font-family="DejaVuSans"><tspan y="0" x="0 5.8581259 9.968126 12.748127 18.248127 24.398127 27.578127 37.84082">Price []</tspan></text>
<g clip-path="url(#clip_9)">
<path transform="matrix(0,-.01,-.01,-0,27.195626,70.267749)" d="M570 673V569C540 603 511 627 484 642 456 656 426 664 393 664 341 664 299 647 267 615 234 582 212 535 202 475H484L457 415H194C193 407 193 399 193 392 193 384 193 375 193 364 193 353 193 344 193 337 193 329 193 322 194 314H412L385 254H202C212 193 234 146 267 113 299 80 341 64 393 64 426 64 456 71 484 86 511 100 540 125 570 159V56C540 32 511 15 481 4 451-7 420-13 389-13 311-13 248 10 198 57 148 103 116 169 103 254H0L27 314H95C95 321 94 328 94 336 94 344 94 353 94 364 94 375 94 384 94 392 94 400 95 407 95 415H0L27 475H103C116 559 148 624 198 671 248 718 312 742 389 742 421 742 452 736 482 725 512 713 541 696 570 673Z"/>
</g>
<g clip-path="url(#clip_10)">
<path transform="matrix(1,0,0,-1,0,345.6)" stroke-width="1.5" stroke-linecap="square" stroke-linejoin="round" fill="none" stroke="#1f77b4" d="M63.608514 214.39636 68.73162 218.8751 73.85474 257.20146 78.977848 252.12091 84.10096 282.57786 89.224079 285.0217 94.34718 280.7094 99.4703 257.5031 104.59341 259.82353 109.71652 274.44004 114.83963 293.28486 119.962749 270.34239 125.08585 300.67469 130.20897 294.83494 135.33208 314.20695 140.45519 277.05998 145.57831 265.63023 150.70142 271.25645 155.82453 300.41835 160.94765 290.92509 166.07076 314.0795 171.19387 315.12364 176.31697 304.19166 181.4401 286.04277 186.5632 272.96098 191.68631 258.89515 196.80942 263.63505 201.93254 233.4109 207.05565 267.03663 212.17876 263.0538"/>
</g>
<path transform="matrix(1,0,0,-1,0,345.6)" stroke-width=".8" stroke-linecap="square" stroke-miterlimit="10" stroke-linejoin="miter" fill="none" stroke="#000000" d="M56.18 209.36V320.16"/>
<path transform="matrix(1,0,0,-1,0,345.6)" stroke-width=".8" stroke-linecap="square" stroke-miterlimit="10" stroke-linejoin="miter" fill="none" stroke="#000000" d="M219.60727 209.36V320.16"/>
<path transform="matrix(1,0,0,-1,0,345.6)" stroke-width=".8" stroke-linecap="square" stroke-miterlimit="10" stroke-linejoin="miter" fill="none" stroke="#000000" d="M56.18 209.36H219.60727"/>
<path transform="matrix(1,0,0,-1,0,345.6)" stroke-width=".8" stroke-linecap="square" stroke-miterlimit="10" stroke-linejoin="miter" fill="none" stroke="#000000" d="M56.18 320.16H219.60727"/>
<text xml:space="preserve" transform="matrix(1 0 -0 1 50.510824 19.440003)" font-size="12" font-family="DejaVuSans"><tspan y="0" x="0 7.0328757 11.964876 15.300877 21.900877 29.280877 33.096879 40.44088 44.66488 48.48088 57.504884 64.88488 72.50488 80.124889 83.460887 91.068889 98.68889 102.50489 106.04489 113.65289 119.90489 124.608898 129.5409 137.1489 148.8369 156.2169 163.8249 168.5289">Price of Hedging Instruments</tspan></text>
<g>
<path transform="matrix(1,0,0,-1,0,345.6)" d="M63.18 214.36H221.7425C223.07584 214.36 223.7425 215.02667 223.7425 216.36V230.03188C223.7425 231.3652 223.07584 232.03188 221.7425 232.03188H63.18C61.84667 232.03188 61.18 231.3652 61.18 230.03188V216.36C61.18 215.02667 61.84667 214.36 63.18 214.36Z" fill="#ffffff" fill-opacity=".8"/>
<path transform="matrix(1,0,0,-1,0,345.6)" stroke-width="1" stroke-linecap="butt" stroke-miterlimit="10" stroke-linejoin="miter" fill="none" stroke="#d5d6d5" stroke-opacity=".8" d="M63.18 214.36H221.7425C223.07584 214.36 223.7425 215.02667 223.7425 216.36V230.03188C223.7425 231.3652 223.07584 232.03188 221.7425 232.03188H63.18C61.84667 232.03188 61.18 231.3652 61.18 230.03188V216.36C61.18 215.02667 61.84667 214.36 63.18 214.36Z"/>
</g>
<path transform="matrix(1,0,0,-1,0,345.6)" stroke-width="1.5" stroke-linecap="square" stroke-linejoin="round" fill="none" stroke="#1f77b4" d="M65.18 223.93813H75.18 85.18"/>
<text xml:space="preserve" transform="matrix(1 0 -0 1 93.18 125.16188)" font-size="10" font-family="DejaVuSans"><tspan y="0" x="0 7.7500007 13.900001 20.02 29.760003 35.910005 39.83 43.940004 46.72 52.22 59.08 62.971254 69.091259 77.271259 83.61125 86.39125 92.52125 98.86125 105.21125 109.13125 115.25125 120.75125">GeometricBrownianStock</tspan></text>
<path transform="matrix(1,0,0,-1,0,345.6)" d="M281.18 209.36H444.60728V320.16H281.18Z" fill="#ffffff"/>
<g clip-path="url(#clip_11)">
<path transform="matrix(1,0,0,-1,0,345.6)" stroke-width=".8" stroke-linecap="square" stroke-linejoin="round" fill="none" stroke="#bebebe" d="M288.60853 209.36V320.16"/>
</g>
<path transform="matrix(1,0,0,-1,0,345.6)" d="M288.60853 209.36V205.86"/>
<path transform="matrix(1,0,0,-1,0,345.6)" stroke-width=".8" stroke-linecap="butt" stroke-linejoin="round" fill="none" stroke="#000000" d="M288.60853 209.36V205.86"/>
<text xml:space="preserve" transform="matrix(1 0 -0 1 285.42884 150.83376)" font-size="10" font-family="DejaVuSans"><tspan y="0" x="0">0</tspan></text>
<g clip-path="url(#clip_12)">
<path transform="matrix(1,0,0,-1,0,345.6)" stroke-width=".8" stroke-linecap="square" stroke-linejoin="round" fill="none" stroke="#bebebe" d="M339.83964 209.36V320.16"/>
</g>
<path transform="matrix(1,0,0,-1,0,345.6)" d="M339.83964 209.36V205.86"/>
<path transform="matrix(1,0,0,-1,0,345.6)" stroke-width=".8" stroke-linecap="butt" stroke-linejoin="round" fill="none" stroke="#000000" d="M339.83964 209.36V205.86"/>
<text xml:space="preserve" transform="matrix(1 0 -0 1 333.48027 150.83376)" font-size="10" font-family="DejaVuSans"><tspan y="0" x="0 6.3600008">10</tspan></text>
<g clip-path="url(#clip_13)">
<path transform="matrix(1,0,0,-1,0,345.6)" stroke-width=".8" stroke-linecap="square" stroke-linejoin="round" fill="none" stroke="#bebebe" d="M391.07075 209.36V320.16"/>
</g>
<path transform="matrix(1,0,0,-1,0,345.6)" d="M391.07075 209.36V205.86"/>
<path transform="matrix(1,0,0,-1,0,345.6)" stroke-width=".8" stroke-linecap="butt" stroke-linejoin="round" fill="none" stroke="#000000" d="M391.07075 209.36V205.86"/>
<text xml:space="preserve" transform="matrix(1 0 -0 1 384.71138 150.83376)" font-size="10" font-family="DejaVuSans"><tspan y="0" x="0 6.3600008">20</tspan></text>
<g clip-path="url(#clip_14)">
<path transform="matrix(1,0,0,-1,0,345.6)" stroke-width=".8" stroke-linecap="square" stroke-linejoin="round" fill="none" stroke="#bebebe" d="M442.30189 209.36V320.16"/>
</g>
<path transform="matrix(1,0,0,-1,0,345.6)" d="M442.30189 209.36V205.86"/>
<path transform="matrix(1,0,0,-1,0,345.6)" stroke-width=".8" stroke-linecap="butt" stroke-linejoin="round" fill="none" stroke="#000000" d="M442.30189 209.36V205.86"/>
<text xml:space="preserve" transform="matrix(1 0 -0 1 435.9425 150.83376)" font-size="10" font-family="DejaVuSans"><tspan y="0" x="0 6.3600008">30</tspan></text>
<text xml:space="preserve" transform="matrix(1 0 -0 1 350.6202 164.50563)" font-size="10" font-family="DejaVuSans"><tspan y="0" x="0 5.813125 8.593125 18.333127">Time</tspan></text>
<g clip-path="url(#clip_15)">
<path transform="matrix(1,0,0,-1,0,345.6)" stroke-width=".8" stroke-linecap="square" stroke-linejoin="round" fill="none" stroke="#bebebe" d="M281.18 224.46155H444.60728"/>
</g>
<path transform="matrix(1,0,0,-1,0,345.6)" d="M281.18 224.46155H277.68"/>
<path transform="matrix(1,0,0,-1,0,345.6)" stroke-width=".8" stroke-linecap="butt" stroke-linejoin="round" fill="none" stroke="#000000" d="M281.18 224.46155H277.68"/>
<text xml:space="preserve" transform="matrix(1 0 -0 1 259.44563 124.93533)" font-size="10" font-family="DejaVuSans"><tspan y="0" x="8.378906">1</tspan></text>
<g clip-path="url(#clip_16)">
<path transform="matrix(.01,0,0,-.01,259.44563,124.93533)" d="M106 355H732V272H106V355Z"/>
</g>
<g clip-path="url(#clip_17)">
<path transform="matrix(1,0,0,-1,0,345.6)" stroke-width=".8" stroke-linecap="square" stroke-linejoin="round" fill="none" stroke="#bebebe" d="M281.18 264.76H444.60728"/>
</g>
<path transform="matrix(1,0,0,-1,0,345.6)" d="M281.18 264.76H277.68"/>
<path transform="matrix(1,0,0,-1,0,345.6)" stroke-width=".8" stroke-linecap="butt" stroke-linejoin="round" fill="none" stroke="#000000" d="M281.18 264.76H277.68"/>
<text xml:space="preserve" transform="matrix(1 0 -0 1 267.82063 84.63687)" font-size="10" font-family="DejaVuSans"><tspan y="0" x="0">0</tspan></text>
<g clip-path="url(#clip_18)">
<path transform="matrix(1,0,0,-1,0,345.6)" stroke-width=".8" stroke-linecap="square" stroke-linejoin="round" fill="none" stroke="#bebebe" d="M281.18 305.05845H444.60728"/>
</g>
<path transform="matrix(1,0,0,-1,0,345.6)" d="M281.18 305.05845H277.68"/>
<path transform="matrix(1,0,0,-1,0,345.6)" stroke-width=".8" stroke-linecap="butt" stroke-linejoin="round" fill="none" stroke="#000000" d="M281.18 305.05845H277.68"/>
<text xml:space="preserve" transform="matrix(1 0 -0 1 267.82063 44.33844)" font-size="10" font-family="DejaVuSans"><tspan y="0" x="0">1</tspan></text>
<text xml:space="preserve" transform="matrix(0 -1 1 0 253.3675 102.92595)" font-size="10" font-family="DejaVuSans"><tspan y="0" x="0 5.6862509 11.806252 17.01625 19.796252 23.716252 26.496253 32.616254 38.956254">Positions</tspan></text>
<g clip-path="url(#clip_19)">
<path transform="matrix(1,0,0,-1,0,345.6)" stroke-width="1.5" stroke-linecap="square" stroke-linejoin="round" fill="none" stroke="#1f77b4" d="M288.60853 281.0451 293.73164 292.3824 298.85475 301.1624 303.97785 306.73606 309.10096 311.06434 314.22407 313.75028 319.3472 315.12364 324.4703 315.0614 329.5934 314.6968 334.71653 314.45585 339.83964 314.3708 344.96275 313.34339 350.08586 312.9923 355.20896 312.2239 360.3321 311.73664 365.4552 310.3368 370.5783 308.8387 375.70143 307.60594 380.82453 306.99586 385.94764 306.15934 391.07075 305.70549 396.19389 305.16929 401.317 304.3764 406.4401 303.2494 411.5632 301.93745 416.6863 300.69975 421.80943 300.33354 426.93254 300.3405 432.05564 300.50675 437.17878 298.84928"/>
</g>
<g clip-path="url(#clip_20)">
<path transform="matrix(1,0,0,-1,0,345.6)" stroke-width="1.5" stroke-linecap="butt" stroke-dasharray="5.55,2.4" stroke-linejoin="round" fill="none" stroke="#000000" stroke-opacity=".8" d="M281.18 264.76H444.60728"/>
</g>
<g clip-path="url(#clip_21)">
<path transform="matrix(1,0,0,-1,0,345.6)" stroke-width="1.5" stroke-linecap="butt" stroke-dasharray="9.6,2.4,1.5,2.4" stroke-linejoin="round" fill="none" stroke="#ff0000" stroke-opacity=".9" d="M288.60853 289.18629 293.73164 290.20118 298.85475 297.18464 303.97785 296.539 309.10096 300.14994 314.22407 300.47248 319.3472 300.21226 324.4703 297.65678 329.5934 298.09419 334.71653 299.9971 339.83964 301.7883 344.96275 299.8578 350.08586 302.58204 355.20896 302.3919 360.3321 303.55436 365.4552 301.36387 370.5783 300.3022 375.70143 301.25077 380.82453 303.68394 385.94764 303.42884 391.07075 304.4973 396.19389 304.66163 401.317 304.60276 406.4401 304.27955 411.5632 303.95835 416.6863 303.29 421.80943 304.35469 426.93254 299.87095 432.05564 305.05497 437.17878 305.05845"/>
</g>
<path transform="matrix(1,0,0,-1,0,345.6)" stroke-width=".8" stroke-linecap="square" stroke-miterlimit="10" stroke-linejoin="miter" fill="none" stroke="#000000" d="M281.18 209.36V320.16"/>
<path transform="matrix(1,0,0,-1,0,345.6)" stroke-width=".8" stroke-linecap="square" stroke-miterlimit="10" stroke-linejoin="miter" fill="none" stroke="#000000" d="M444.60728 209.36V320.16"/>
<path transform="matrix(1,0,0,-1,0,345.6)" stroke-width=".8" stroke-linecap="square" stroke-miterlimit="10" stroke-linejoin="miter" fill="none" stroke="#000000" d="M281.18 209.36H444.60728"/>
<path transform="matrix(1,0,0,-1,0,345.6)" stroke-width=".8" stroke-linecap="square" stroke-miterlimit="10" stroke-linejoin="miter" fill="none" stroke="#000000" d="M281.18 320.16H444.60728"/>
<text xml:space="preserve" transform="matrix(1 0 -0 1 316.71397 19.440003)" font-size="12" font-family="DejaVuSans"><tspan y="0" x="0 8.208 15.828001 23.208 30.816 35.52 39.336004 46.150129 53.49413 59.746129 63.08213 67.78613 71.12213 78.46613 86.074138">Agent Positions</tspan></text>
<g>
<path transform="matrix(1,0,0,-1,0,345.6)" d="M288.18 214.36H446.7425C448.07585 214.36 448.7425 215.02667 448.7425 216.36V244.70375C448.7425 246.03708 448.07585 246.70375 446.7425 246.70375H288.18C286.84669 246.70375 286.18 246.03708 286.18 244.70375V216.36C286.18 215.02667 286.84669 214.36 288.18 214.36Z" fill="#ffffff" fill-opacity=".8"/>
<path transform="matrix(1,0,0,-1,0,345.6)" stroke-width="1" stroke-linecap="butt" stroke-miterlimit="10" stroke-linejoin="miter" fill="none" stroke="#d5d6d5" stroke-opacity=".8" d="M288.18 214.36H446.7425C448.07585 214.36 448.7425 215.02667 448.7425 216.36V244.70375C448.7425 246.03708 448.07585 246.70375 446.7425 246.70375H288.18C286.84669 246.70375 286.18 246.03708 286.18 244.70375V216.36C286.18 215.02667 286.84669 214.36 288.18 214.36Z"/>
</g>
<path transform="matrix(1,0,0,-1,0,345.6)" stroke-width="1.5" stroke-linecap="square" stroke-linejoin="round" fill="none" stroke="#1f77b4" d="M290.18 238.61H300.18 310.18"/>
<text xml:space="preserve" transform="matrix(1 0 -0 1 318.18 110.490009)" font-size="10" font-family="DejaVuSans"><tspan y="0" x="0 7.7500007 13.900001 20.02 29.760003 35.910005 39.83 43.940004 46.72 52.22 59.08 62.971254 69.091259 77.271259 83.61125 86.39125 92.52125 98.86125 105.21125 109.13125 115.25125 120.75125">GeometricBrownianStock</tspan></text>
<path transform="matrix(1,0,0,-1,0,345.6)" stroke-width="1.5" stroke-linecap="butt" stroke-dasharray="9.6,2.4,1.5,2.4" stroke-linejoin="round" fill="none" stroke="#ff0000" stroke-opacity=".9" d="M290.18 223.93813H300.18 310.18"/>
<text xml:space="preserve" transform="matrix(1 0 -0 1 318.18 125.16188)" font-size="10" font-family="DejaVuSans"><tspan y="0" x="0 7.7000005 13.85 16.630002 20.550002 26.68 29.86 35.98 39.5 42.68 49.368127 55.718126 62.698125 68.828128 71.60812">Delta of BSCall</tspan></text>
<path transform="matrix(1,0,0,-1,0,345.6)" d="M56.18 41.96H219.60727V152.76H56.18Z" fill="#ffffff"/>
<g clip-path="url(#clip_22)">
<path transform="matrix(1,0,0,-1,0,345.6)" stroke-width=".8" stroke-linecap="square" stroke-linejoin="round" fill="none" stroke="#bebebe" d="M63.608514 41.96V152.76"/>
</g>
<path transform="matrix(1,0,0,-1,0,345.6)" d="M63.608514 41.96V38.46"/>
<path transform="matrix(1,0,0,-1,0,345.6)" stroke-width=".8" stroke-linecap="butt" stroke-linejoin="round" fill="none" stroke="#000000" d="M63.608514 41.96V38.46"/>
<text xml:space="preserve" transform="matrix(1 0 -0 1 60.428827 318.23377)" font-size="10" font-family="DejaVuSans"><tspan y="0" x="0">0</tspan></text>
<g clip-path="url(#clip_23)">
<path transform="matrix(1,0,0,-1,0,345.6)" stroke-width=".8" stroke-linecap="square" stroke-linejoin="round" fill="none" stroke="#bebebe" d="M114.83963 41.96V152.76"/>
</g>
<path transform="matrix(1,0,0,-1,0,345.6)" d="M114.83963 41.96V38.46"/>
<path transform="matrix(1,0,0,-1,0,345.6)" stroke-width=".8" stroke-linecap="butt" stroke-linejoin="round" fill="none" stroke="#000000" d="M114.83963 41.96V38.46"/>
<text xml:space="preserve" transform="matrix(1 0 -0 1 108.480258 318.23377)" font-size="10" font-family="DejaVuSans"><tspan y="0" x="0 6.3600008">10</tspan></text>
<g clip-path="url(#clip_24)">
<path transform="matrix(1,0,0,-1,0,345.6)" stroke-width=".8" stroke-linecap="square" stroke-linejoin="round" fill="none" stroke="#bebebe" d="M166.07076 41.96V152.76"/>
</g>
<path transform="matrix(1,0,0,-1,0,345.6)" d="M166.07076 41.96V38.46"/>
<path transform="matrix(1,0,0,-1,0,345.6)" stroke-width=".8" stroke-linecap="butt" stroke-linejoin="round" fill="none" stroke="#000000" d="M166.07076 41.96V38.46"/>
<text xml:space="preserve" transform="matrix(1 0 -0 1 159.71138 318.23377)" font-size="10" font-family="DejaVuSans"><tspan y="0" x="0 6.3600008">20</tspan></text>
<g clip-path="url(#clip_25)">
<path transform="matrix(1,0,0,-1,0,345.6)" stroke-width=".8" stroke-linecap="square" stroke-linejoin="round" fill="none" stroke="#bebebe" d="M217.30187 41.96V152.76"/>
</g>
<path transform="matrix(1,0,0,-1,0,345.6)" d="M217.30187 41.96V38.46"/>
<path transform="matrix(1,0,0,-1,0,345.6)" stroke-width=".8" stroke-linecap="butt" stroke-linejoin="round" fill="none" stroke="#000000" d="M217.30187 41.96V38.46"/>
<text xml:space="preserve" transform="matrix(1 0 -0 1 210.94249 318.23377)" font-size="10" font-family="DejaVuSans"><tspan y="0" x="0 6.3600008">30</tspan></text>
<text xml:space="preserve" transform="matrix(1 0 -0 1 125.6202 331.90565)" font-size="10" font-family="DejaVuSans"><tspan y="0" x="0 5.813125 8.593125 18.333127">Time</tspan></text>
<g clip-path="url(#clip_26)">
<path transform="matrix(1,0,0,-1,0,345.6)" stroke-width=".8" stroke-linecap="square" stroke-linejoin="round" fill="none" stroke="#bebebe" d="M56.18 46.916376H219.60727"/>
</g>
<path transform="matrix(1,0,0,-1,0,345.6)" d="M56.18 46.916376H52.68"/>
<path transform="matrix(1,0,0,-1,0,345.6)" stroke-width=".8" stroke-linecap="butt" stroke-linejoin="round" fill="none" stroke="#000000" d="M56.18 46.916376H52.68"/>
<text xml:space="preserve" transform="matrix(1 0 -0 1 24.89875 302.4805)" font-size="10" font-family="DejaVuSans"><tspan y="0" x="8.378906 14.738907 17.918908">1.0</tspan></text>
<g clip-path="url(#clip_27)">
<path transform="matrix(.01,0,0,-.01,24.89875,302.4805)" d="M106 355H732V272H106V355Z"/>
</g>
<g clip-path="url(#clip_28)">
<path transform="matrix(1,0,0,-1,0,345.6)" stroke-width=".8" stroke-linecap="square" stroke-linejoin="round" fill="none" stroke="#bebebe" d="M56.18 72.13819H219.60727"/>
</g>
<path transform="matrix(1,0,0,-1,0,345.6)" d="M56.18 72.13819H52.68"/>
<path transform="matrix(1,0,0,-1,0,345.6)" stroke-width=".8" stroke-linecap="butt" stroke-linejoin="round" fill="none" stroke="#000000" d="M56.18 72.13819H52.68"/>
<text xml:space="preserve" transform="matrix(1 0 -0 1 24.89875 277.2587)" font-size="10" font-family="DejaVuSans"><tspan y="0" x="8.378906 14.738907 17.918908">0.5</tspan></text>
<g clip-path="url(#clip_29)">
<path transform="matrix(.01,0,0,-.01,24.89875,277.2587)" d="M106 355H732V272H106V355Z"/>
</g>
<g clip-path="url(#clip_30)">
<path transform="matrix(1,0,0,-1,0,345.6)" stroke-width=".8" stroke-linecap="square" stroke-linejoin="round" fill="none" stroke="#bebebe" d="M56.18 97.36H219.60727"/>
</g>
<path transform="matrix(1,0,0,-1,0,345.6)" d="M56.18 97.36H52.68"/>
<path transform="matrix(1,0,0,-1,0,345.6)" stroke-width=".8" stroke-linecap="butt" stroke-linejoin="round" fill="none" stroke="#000000" d="M56.18 97.36H52.68"/>
<text xml:space="preserve" transform="matrix(1 0 -0 1 33.27375 252.03688)" font-size="10" font-family="DejaVuSans"><tspan y="0" x="0 6.3600008 9.540001">0.0</tspan></text>
<g clip-path="url(#clip_31)">
<path transform="matrix(1,0,0,-1,0,345.6)" stroke-width=".8" stroke-linecap="square" stroke-linejoin="round" fill="none" stroke="#bebebe" d="M56.18 122.58181H219.60727"/>
</g>
<path transform="matrix(1,0,0,-1,0,345.6)" d="M56.18 122.58181H52.68"/>
<path transform="matrix(1,0,0,-1,0,345.6)" stroke-width=".8" stroke-linecap="butt" stroke-linejoin="round" fill="none" stroke="#000000" d="M56.18 122.58181H52.68"/>
<text xml:space="preserve" transform="matrix(1 0 -0 1 33.27375 226.81507)" font-size="10" font-family="DejaVuSans"><tspan y="0" x="0 6.3600008 9.540001">0.5</tspan></text>
<g clip-path="url(#clip_32)">
<path transform="matrix(1,0,0,-1,0,345.6)" stroke-width=".8" stroke-linecap="square" stroke-linejoin="round" fill="none" stroke="#bebebe" d="M56.18 147.80362H219.60727"/>
</g>
<path transform="matrix(1,0,0,-1,0,345.6)" d="M56.18 147.80362H52.68"/>
<path transform="matrix(1,0,0,-1,0,345.6)" stroke-width=".8" stroke-linecap="butt" stroke-linejoin="round" fill="none" stroke="#000000" d="M56.18 147.80362H52.68"/>
<text xml:space="preserve" transform="matrix(1 0 -0 1 33.27375 201.59326)" font-size="10" font-family="DejaVuSans"><tspan y="0" x="0 6.3600008 9.540001">1.0</tspan></text>
<text xml:space="preserve" transform="matrix(0 -1 1 0 18.820626 266.6228)" font-size="10" font-family="DejaVuSans"><tspan y="0" x="0 6.0300009 13.830001 19.400002 22.580002 32.841798">P&#x0026;L []</tspan></text>
<g clip-path="url(#clip_33)">
<path transform="matrix(0,-.01,-.01,-0,18.820626,240.14331)" d="M570 673V569C540 603 511 627 484 642 456 656 426 664 393 664 341 664 299 647 267 615 234 582 212 535 202 475H484L457 415H194C193 407 193 399 193 392 193 384 193 375 193 364 193 353 193 344 193 337 193 329 193 322 194 314H412L385 254H202C212 193 234 146 267 113 299 80 341 64 393 64 426 64 456 71 484 86 511 100 540 125 570 159V56C540 32 511 15 481 4 451-7 420-13 389-13 311-13 248 10 198 57 148 103 116 169 103 254H0L27 314H95C95 321 94 328 94 336 94 344 94 353 94 364 94 375 94 384 94 392 94 400 95 407 95 415H0L27 475H103C116 559 148 624 198 671 248 718 312 742 389 742 421 742 452 736 482 725 512 713 541 696 570 673Z"/>
</g>
<g clip-path="url(#clip_34)">
<path transform="matrix(1,0,0,-1,0,345.6)" stroke-width="1.5" stroke-linecap="square" stroke-linejoin="round" fill="none" stroke="#1f77b4" d="M63.608514 108.10618 68.73162 108.88406 73.85474 120.174907 78.977848 118.20244 84.10096 131.83747 89.224079 133.04434 94.34718 130.79122 99.4703 118.32625 104.59341 119.57108 109.71652 127.35564 114.83963 137.34366 119.962749 125.20461 125.08585 140.92133 130.20897 137.91732 135.33208 147.72364 140.45519 129.11249 145.57831 123.55669 150.70142 126.20161 155.82453 139.5274 160.94765 135.25115 166.07076 145.47454 171.19387 145.9305 176.31697 141.21913 181.4401 133.55094 186.5632 128.18093 191.68631 122.60376 196.80942 124.420589 201.93254 112.953609 207.05565 125.71362 212.17876 103.28272"/>
</g>
<g clip-path="url(#clip_35)">
<path transform="matrix(1,0,0,-1,0,345.6)" stroke-width="1.5" stroke-linecap="butt" stroke-dasharray="5.55,2.4" stroke-linejoin="round" fill="none" stroke="#000000" stroke-opacity=".5" d="M56.18 97.36H219.60727"/>
</g>
<path transform="matrix(1,0,0,-1,0,345.6)" stroke-width=".8" stroke-linecap="square" stroke-miterlimit="10" stroke-linejoin="miter" fill="none" stroke="#000000" d="M56.18 41.96V152.76"/>
<path transform="matrix(1,0,0,-1,0,345.6)" stroke-width=".8" stroke-linecap="square" stroke-miterlimit="10" stroke-linejoin="miter" fill="none" stroke="#000000" d="M219.60727 41.96V152.76"/>
<path transform="matrix(1,0,0,-1,0,345.6)" stroke-width=".8" stroke-linecap="square" stroke-miterlimit="10" stroke-linejoin="miter" fill="none" stroke="#000000" d="M56.18 41.96H219.60727"/>
<path transform="matrix(1,0,0,-1,0,345.6)" stroke-width=".8" stroke-linecap="square" stroke-miterlimit="10" stroke-linejoin="miter" fill="none" stroke="#000000" d="M56.18 152.76H219.60727"/>
<text xml:space="preserve" transform="matrix(1 0 -0 1 57.338949 186.84001)" font-size="12" font-family="DejaVuSans"><tspan y="0" x="0 5.30075 12.644751 17.348752 24.704752 28.040753 31.856753 39.092756 48.452756 55.136758 58.95276 63.63276 67.17276 74.78076 81.38076 84.71676 92.32476 99.94476 103.28076 110.88876 118.508769 122.32477 130.70078 134.03678 141.39278 144.72878 156.41678">Total P&#x0026;L (Including Claim)</tspan></text>
<path transform="matrix(1,0,0,-1,0,345.6)" d="M281.18 41.96H444.60728V152.76H281.18Z" fill="#ffffff"/>
<g clip-path="url(#clip_36)">
<path transform="matrix(1,0,0,-1,0,345.6)" d="M306.43696 97.36H330.2082V69.38675H306.43696Z" fill="#ff0000"/>
</g>
<g clip-path="url(#clip_37)">
<path transform="matrix(1,0,0,-1,0,345.6)" d="M336.151 97.36H359.92225V147.72364H336.151Z" fill="#0000ff"/>
</g>
<g clip-path="url(#clip_38)">
<path transform="matrix(1,0,0,-1,0,345.6)" d="M365.86506 97.36H389.6363V79.91133H365.86506Z" fill="#008000"/>
</g>
<g clip-path="url(#clip_39)">
<path transform="matrix(1,0,0,-1,0,345.6)" d="M395.5791 97.36H419.35035V102.30172H395.5791Z" fill="#ffa500"/>
</g>
<g clip-path="url(#clip_40)">
<path transform="matrix(1,0,0,-1,0,345.6)" stroke-width=".8" stroke-linecap="square" stroke-linejoin="round" fill="none" stroke="#bebebe" d="M318.32258 41.96V152.76"/>
</g>
<path transform="matrix(1,0,0,-1,0,345.6)" d="M318.32258 41.96V38.46"/>
<path transform="matrix(1,0,0,-1,0,345.6)" stroke-width=".8" stroke-linecap="butt" stroke-linejoin="round" fill="none" stroke="#000000" d="M318.32258 41.96V38.46"/>
<text xml:space="preserve" transform="matrix(1 0 -0 1 305.98664 318.23377)" font-size="10" font-family="DejaVuSans"><tspan y="0" x="0 6.98 13.110001 18.32">Cash</tspan></text>
<g clip-path="url(#clip_41)">
<path transform="matrix(1,0,0,-1,0,345.6)" stroke-width=".8" stroke-linecap="square" stroke-linejoin="round" fill="none" stroke="#bebebe" d="M348.03663 41.96V152.76"/>
</g>
<path transform="matrix(1,0,0,-1,0,345.6)" d="M348.03663 41.96V38.46"/>
<path transform="matrix(1,0,0,-1,0,345.6)" stroke-width=".8" stroke-linecap="butt" stroke-linejoin="round" fill="none" stroke="#000000" d="M348.03663 41.96V38.46"/>
<text xml:space="preserve" transform="matrix(1 0 -0 1 341.59913 318.23377)" font-size="10" font-family="DejaVuSans"><tspan y="0" x="0 6.0300009">PV</tspan></text>
<g clip-path="url(#clip_42)">
<path transform="matrix(1,0,0,-1,0,345.6)" stroke-width=".8" stroke-linecap="square" stroke-linejoin="round" fill="none" stroke="#bebebe" d="M377.75068 41.96V152.76"/>
</g>
<path transform="matrix(1,0,0,-1,0,345.6)" d="M377.75068 41.96V38.46"/>
<path transform="matrix(1,0,0,-1,0,345.6)" stroke-width=".8" stroke-linecap="butt" stroke-linejoin="round" fill="none" stroke="#000000" d="M377.75068 41.96V38.46"/>
<text xml:space="preserve" transform="matrix(1 0 -0 1 370.7663 318.23377)" font-size="10" font-family="DejaVuSans"><tspan y="0" x="0 6.98">CC</tspan></text>
<g clip-path="url(#clip_43)">
<path transform="matrix(1,0,0,-1,0,345.6)" stroke-width=".8" stroke-linecap="square" stroke-linejoin="round" fill="none" stroke="#bebebe" d="M407.46473 41.96V152.76"/>
</g>
<path transform="matrix(1,0,0,-1,0,345.6)" d="M407.46473 41.96V38.46"/>
<path transform="matrix(1,0,0,-1,0,345.6)" stroke-width=".8" stroke-linecap="butt" stroke-linejoin="round" fill="none" stroke="#000000" d="M407.46473 41.96V38.46"/>
<text xml:space="preserve" transform="matrix(1 0 -0 1 397.7616 318.23377)" font-size="10" font-family="DejaVuSans"><tspan y="0" x="0 6.0300009 13.830001">P&#x0026;L</tspan></text>
<text xml:space="preserve" transform="matrix(1 0 -0 1 340.0499 331.90565)" font-size="10" font-family="DejaVuSans"><tspan y="0" x="0 6.98 13.110001 17.03 23.18 29.53 35.65 39.760004">Category</tspan></text>
<g clip-path="url(#clip_44)">
<path transform="matrix(1,0,0,-1,0,345.6)" stroke-width=".8" stroke-linecap="square" stroke-linejoin="round" fill="none" stroke="#bebebe" d="M281.18 55.271547H444.60728"/>
</g>
<path transform="matrix(1,0,0,-1,0,345.6)" d="M281.18 55.271547H277.68"/>
<path transform="matrix(1,0,0,-1,0,345.6)" stroke-width=".8" stroke-linecap="butt" stroke-linejoin="round" fill="none" stroke="#000000" d="M281.18 55.271547H277.68"/>
<text xml:space="preserve" transform="matrix(1 0 -0 1 259.44563 294.12535)" font-size="10" font-family="DejaVuSans"><tspan y="0" x="8.378906">1</tspan></text>
<g clip-path="url(#clip_45)">
<path transform="matrix(.01,0,0,-.01,259.44563,294.12535)" d="M106 355H732V272H106V355Z"/>
</g>
<g clip-path="url(#clip_46)">
<path transform="matrix(1,0,0,-1,0,345.6)" stroke-width=".8" stroke-linecap="square" stroke-linejoin="round" fill="none" stroke="#bebebe" d="M281.18 97.36H444.60728"/>
</g>
<path transform="matrix(1,0,0,-1,0,345.6)" d="M281.18 97.36H277.68"/>
<path transform="matrix(1,0,0,-1,0,345.6)" stroke-width=".8" stroke-linecap="butt" stroke-linejoin="round" fill="none" stroke="#000000" d="M281.18 97.36H277.68"/>
<text xml:space="preserve" transform="matrix(1 0 -0 1 267.82063 252.03688)" font-size="10" font-family="DejaVuSans"><tspan y="0" x="0">0</tspan></text>
<g clip-path="url(#clip_47)">
<path transform="matrix(1,0,0,-1,0,345.6)" stroke-width=".8" stroke-linecap="square" stroke-linejoin="round" fill="none" stroke="#bebebe" d="M281.18 139.44846H444.60728"/>
</g>
<path transform="matrix(1,0,0,-1,0,345.6)" d="M281.18 139.44846H277.68"/>
<path transform="matrix(1,0,0,-1,0,345.6)" stroke-width=".8" stroke-linecap="butt" stroke-linejoin="round" fill="none" stroke="#000000" d="M281.18 139.44846H277.68"/>
<text xml:space="preserve" transform="matrix(1 0 -0 1 267.82063 209.94843)" font-size="10" font-family="DejaVuSans"><tspan y="0" x="0">1</tspan></text>
<text xml:space="preserve" transform="matrix(0 -1 1 0 253.3675 270.66969)" font-size="10" font-family="DejaVuSans"><tspan y="0" x="0 6.074375 12.204375 14.984375 21.324376 27.474375 30.654376 40.914064">Value []</tspan></text>
<g clip-path="url(#clip_48)">
<path transform="matrix(0,-.01,-.01,-0,253.3675,236.11792)" d="M570 673V569C540 603 511 627 484 642 456 656 426 664 393 664 341 664 299 647 267 615 234 582 212 535 202 475H484L457 415H194C193 407 193 399 193 392 193 384 193 375 193 364 193 353 193 344 193 337 193 329 193 322 194 314H412L385 254H202C212 193 234 146 267 113 299 80 341 64 393 64 426 64 456 71 484 86 511 100 540 125 570 159V56C540 32 511 15 481 4 451-7 420-13 389-13 311-13 248 10 198 57 148 103 116 169 103 254H0L27 314H95C95 321 94 328 94 336 94 344 94 353 94 364 94 375 94 384 94 392 94 400 95 407 95 415H0L27 475H103C116 559 148 624 198 671 248 718 312 742 389 742 421 742 452 736 482 725 512 713 541 696 570 673Z"/>
</g>
<g clip-path="url(#clip_49)">
<path transform="matrix(1,0,0,-1,0,345.6)" stroke-width="1.5" stroke-linecap="butt" stroke-dasharray="5.55,2.4" stroke-linejoin="round" fill="none" stroke="#000000" d="M288.60853 97.36H437.17878"/>
</g>
<path transform="matrix(1,0,0,-1,0,345.6)" stroke-width=".8" stroke-linecap="square" stroke-miterlimit="10" stroke-linejoin="miter" fill="none" stroke="#000000" d="M281.18 41.96V152.76"/>
<path transform="matrix(1,0,0,-1,0,345.6)" stroke-width=".8" stroke-linecap="square" stroke-miterlimit="10" stroke-linejoin="miter" fill="none" stroke="#000000" d="M444.60728 41.96V152.76"/>
<path transform="matrix(1,0,0,-1,0,345.6)" stroke-width=".8" stroke-linecap="square" stroke-miterlimit="10" stroke-linejoin="miter" fill="none" stroke="#000000" d="M281.18 41.96H444.60728"/>
<path transform="matrix(1,0,0,-1,0,345.6)" stroke-width=".8" stroke-linecap="square" stroke-miterlimit="10" stroke-linejoin="miter" fill="none" stroke="#000000" d="M281.18 152.76H444.60728"/>
<text xml:space="preserve" transform="matrix(1 0 -0 1 302.17414 276.21327)" font-size="10" font-family="DejaVuSans"><tspan y="0" x="0 3.4800003 7.63 14.59 18.39 25.35"> -0.66</tspan></text>
<text xml:space="preserve" transform="matrix(1 0 -0 1 333.9663 197.87638)" font-size="10" font-family="DejaVuSans"><tspan y="0" x="0 3.4800003 10.440001 14.240001 21.2"> 1.20</tspan></text>
<text xml:space="preserve" transform="matrix(1 0 -0 1 361.60224 265.68867)" font-size="10" font-family="DejaVuSans"><tspan y="0" x="0 3.4800003 7.63 14.59 18.39 25.35"> -0.41</tspan></text>
<text xml:space="preserve" transform="matrix(1 0 -0 1 393.3944 243.29828)" font-size="10" font-family="DejaVuSans"><tspan y="0" x="0 3.4800003 10.440001 14.240001 21.2"> 0.12</tspan></text>
<text xml:space="preserve" transform="matrix(1 0 -0 1 268.62803 186.84001)" font-size="12" font-family="DejaVuSans"><tspan y="0" x="0 6.0406258 9.376626 16.984627 24.340628 27.676629 31.492629 38.306756 45.650758 50.582757 55.28676 59.510759 66.85476 70.19076 73.52676 80.87076 84.68676 91.972888 99.32889 102.66489 110.27289 117.652889 121.46889 129.70088 134.38289 141.7629 149.1189 156.0669 163.68689 171.03089 180.84688">Final Portfolio Value Breakdown</tspan></text>
</svg>
