<svg xmlns="http://www.w3.org/2000/svg" xmlns:xlink="http://www.w3.org/1999/xlink" version="1.1" width="460.8pt" height="345.6pt" viewBox="0 0 460.8 345.6">
<defs>
<clipPath id="clip_0">
<path transform="matrix(1,0,0,-1,0,345.6)" d="M57.6 38.016H414.72V304.128H57.6Z"/>
</clipPath>
<clipPath id="clip_1">
<path transform="matrix(1,0,0,-1,0,345.6)" d="M57.6 38.016H414.72V304.128H57.6Z"/>
</clipPath>
<clipPath id="clip_2">
<path transform="matrix(1,0,0,-1,0,345.6)" d="M57.6 38.016H414.72V304.128H57.6Z"/>
</clipPath>
<clipPath id="clip_3">
<path transform="matrix(1,0,0,-1,0,345.6)" d="M57.6 38.016H414.72V304.128H57.6Z"/>
</clipPath>
<clipPath id="clip_4">
<path transform="matrix(1,0,0,-1,0,345.6)" d="M57.6 38.016H414.72V304.128H57.6Z"/>
</clipPath>
<clipPath id="clip_5">
<path transform="matrix(1,0,0,-1,0,345.6)" d="M57.6 38.016H414.72V304.128H57.6Z"/>
</clipPath>
<clipPath id="clip_6">
<path transform="matrix(1,0,0,-1,0,345.6)" d="M57.6 38.016H414.72V304.128H57.6Z"/>
</clipPath>
<clipPath id="clip_7">
<path transform="matrix(1,0,0,-1,0,345.6)" d="M57.6 38.016H414.72V304.128H57.6Z"/>
</clipPath>
<clipPath id="clip_8">
<path transform="matrix(1,0,0,-1,0,345.6)" d="M57.6 38.016H414.72V304.128H57.6Z"/>
</clipPath>
<clipPath id="clip_9">
<path transform="matrix(1,0,0,-1,0,345.6)" d="M57.6 38.016H414.72V304.128H57.6Z"/>
</clipPath>
<clipPath id="clip_10">
<path transform="matrix(1,0,0,-1,0,345.6)" d="M57.6 38.016H414.72V304.128H57.6Z"/>
</clipPath>
<clipPath id="clip_11">
<path transform="matrix(1,0,0,-1,0,345.6)" d="M57.6 38.016H414.72V304.128H57.6Z"/>
</clipPath>
<clipPath id="clip_12">
<path transform="matrix(1,0,0,-1,0,345.6)" d="M57.6 38.016H414.72V304.128H57.6Z"/>
</clipPath>
<clipPath id="clip_13">
<path transform="matrix(1,0,0,-1,0,345.6)" d="M57.6 38.016H414.72V304.128H57.6Z"/>
</clipPath>
<clipPath id="clip_14">
<path transform="matrix(1,0,0,-1,0,345.6)" d="M57.6 38.016H414.72V304.128H57.6Z"/>
</clipPath>
<clipPath id="clip_15">
<path transform="matrix(1,0,0,-1,0,345.6)" d="M57.6 38.016H414.72V304.128H57.6Z"/>
</clipPath>
<clipPath id="clip_16">
<path transform="matrix(1,0,0,-1,0,345.6)" d="M57.6 38.016H414.72V304.128H57.6Z"/>
</clipPath>
<clipPath id="clip_17">
<path transform="matrix(1,0,0,-1,0,345.6)" d="M57.6 38.016H414.72V304.128H57.6Z"/>
</clipPath>
<clipPath id="clip_18">
<path transform="matrix(1,0,0,-1,0,345.6)" d="M57.6 38.016H414.72V304.128H57.6Z"/>
</clipPath>
<clipPath id="clip_19">
<path transform="matrix(1,0,0,-1,0,345.6)" d="M57.6 38.016H414.72V304.128H57.6Z"/>
</clipPath>
<clipPath id="clip_20">
<path transform="matrix(1,0,0,-1,0,345.6)" d="M57.6 38.016H414.72V304.128H57.6Z"/>
</clipPath>
<clipPath id="clip_21">
<path transform="matrix(1,0,0,-1,0,345.6)" d="M57.6 38.016H414.72V304.128H57.6Z"/>
</clipPath>
<clipPath id="clip_22">
<path transform="matrix(1,0,0,-1,0,345.6)" d="M57.6 38.016H414.72V304.128H57.6Z"/>
</clipPath>
<clipPath id="clip_23">
<path transform="matrix(1,0,0,-1,0,345.6)" d="M57.6 38.016H414.72V304.128H57.6Z"/>
</clipPath>
<clipPath id="clip_24">
<path transform="matrix(1,0,0,-1,0,345.6)" d="M57.6 38.016H414.72V304.128H57.6Z"/>
</clipPath>
<clipPath id="clip_25">
<path transform="matrix(1,0,0,-1,0,345.6)" d="M57.6 38.016H414.72V304.128H57.6Z"/>
</clipPath>
<clipPath id="clip_26">
<path transform="matrix(1,0,0,-1,0,345.6)" d="M57.6 38.016H414.72V304.128H57.6Z"/>
</clipPath>
<clipPath id="clip_27">
<path transform="matrix(1,0,0,-1,0,345.6)" d="M57.6 38.016H414.72V304.128H57.6Z"/>
</clipPath>
<clipPath id="clip_28">
<path transform="matrix(1,0,0,-1,0,345.6)" d="M57.6 38.016H414.72V304.128H57.6Z"/>
</clipPath>
<clipPath id="clip_29">
<path transform="matrix(1,0,0,-1,0,345.6)" d="M57.6 38.016H414.72V304.128H57.6Z"/>
</clipPath>
<clipPath id="clip_30">
<path transform="matrix(1,0,0,-1,0,345.6)" d="M57.6 38.016H414.72V304.128H57.6Z"/>
</clipPath>
<clipPath id="clip_31">
<path transform="matrix(1,0,0,-1,0,345.6)" d="M57.6 38.016H414.72V304.128H57.6Z"/>
</clipPath>
<clipPath id="clip_32">
<path transform="matrix(1,0,0,-1,0,345.6)" d="M57.6 38.016H414.72V304.128H57.6Z"/>
</clipPath>
<clipPath id="clip_33">
<path transform="matrix(1,0,0,-1,0,345.6)" d="M57.6 38.016H414.72V304.128H57.6Z"/>
</clipPath>
<clipPath id="clip_34">
<path transform="matrix(1,0,0,-1,0,345.6)" d="M57.6 38.016H414.72V304.128H57.6Z"/>
</clipPath>
<clipPath id="clip_35">
<path transform="matrix(1,0,0,-1,0,345.6)" d="M57.6 38.016H414.72V304.128H57.6Z"/>
</clipPath>
<clipPath id="clip_36">
<path transform="matrix(1,0,0,-1,0,345.6)" d="M57.6 38.016H414.72V304.128H57.6Z"/>
</clipPath>
<clipPath id="clip_37">
<path transform="matrix(1,0,0,-1,0,345.6)" d="M57.6 38.016H414.72V304.128H57.6Z"/>
</clipPath>
<clipPath id="clip_38">
<path transform="matrix(1,0,0,-1,0,345.6)" d="M57.6 38.016H414.72V304.128H57.6Z"/>
</clipPath>
<clipPath id="clip_39">
<path transform="matrix(1,0,0,-1,0,345.6)" d="M57.6 38.016H414.72V304.128H57.6Z"/>
</clipPath>
<clipPath id="clip_40">
<path transform="matrix(1,0,0,-1,0,345.6)" d="M57.6 38.016H414.72V304.128H57.6Z"/>
</clipPath>
<clipPath id="clip_41">
<path transform="matrix(1,0,0,-1,0,345.6)" d="M57.6 38.016H414.72V304.128H57.6Z"/>
</clipPath>
<clipPath id="clip_42">
<path transform="matrix(1,0,0,-1,0,345.6)" d="M57.6 38.016H414.72V304.128H57.6Z"/>
</clipPath>
<clipPath id="clip_43">
<path transform="matrix(1,0,0,-1,0,345.6)" d="M57.6 38.016H414.72V304.128H57.6Z"/>
</clipPath>
<clipPath id="clip_44">
<path transform="matrix(1,0,0,-1,0,345.6)" d="M57.6 38.016H414.72V304.128H57.6Z"/>
</clipPath>
<clipPath id="clip_45">
<path transform="matrix(1,0,0,-1,0,345.6)" d="M57.6 38.016H414.72V304.128H57.6Z"/>
</clipPath>
<clipPath id="clip_46">
<path transform="matrix(1,0,0,-1,0,345.6)" d="M57.6 38.016H414.72V304.128H57.6Z"/>
</clipPath>
<clipPath id="clip_47">
<path transform="matrix(1,0,0,-1,0,345.6)" d="M57.6 38.016H414.72V304.128H57.6Z"/>
</clipPath>
<clipPath id="clip_48">
<path transform="matrix(1,0,0,-1,0,345.6)" d="M57.6 38.016H414.72V304.128H57.6Z"/>
</clipPath>
<clipPath id="clip_49">
<path transform="matrix(1,0,0,-1,0,345.6)" d="M57.6 38.016H414.72V304.128H57.6Z"/>
</clipPath>
<clipPath id="clip_50">
<path transform="matrix(1,0,0,-1,0,345.6)" d="M57.6 38.016H414.72V304.128H57.6Z"/>
</clipPath>
<clipPath id="clip_51">
<path transform="matrix(1,0,0,-1,0,345.6)" d="M57.6 38.016H414.72V304.128H57.6Z"/>
</clipPath>
<clipPath id="clip_52">
<path transform="matrix(1,0,0,-1,0,345.6)" d="M57.6 38.016H414.72V304.128H57.6Z"/>
</clipPath>
<clipPath id="clip_53">
<path transform="matrix(1,0,0,-1,0,345.6)" d="M57.6 38.016H414.72V304.128H57.6Z"/>
</clipPath>
<clipPath id="clip_54">
<path transform="matrix(1,0,0,-1,0,345.6)" d="M57.6 38.016H414.72V304.128H57.6Z"/>
</clipPath>
<clipPath id="clip_55">
<path transform="matrix(1,0,0,-1,0,345.6)" d="M57.6 38.016H414.72V304.128H57.6Z"/>
</clipPath>
<clipPath id="clip_56">
<path transform="matrix(1,0,0,-1,0,345.6)" d="M57.6 38.016H414.72V304.128H57.6Z"/>
</clipPath>
<clipPath id="clip_57">
<path transform="matrix(1,0,0,-1,0,345.6)" d="M57.6 38.016H414.72V304.128H57.6Z"/>
</clipPath>
<clipPath id="clip_58">
<path transform="matrix(1,0,0,-1,0,345.6)" d="M57.6 38.016H414.72V304.128H57.6Z"/>
</clipPath>
<clipPath id="clip_59">
<path transform="matrix(1,0,0,-1,0,345.6)" d="M57.6 38.016H414.72V304.128H57.6Z"/>
</clipPath>
<clipPath id="clip_60">
<path transform="matrix(1,0,0,-1,0,345.6)" d="M57.6 38.016H414.72V304.128H57.6Z"/>
</clipPath>
<clipPath id="clip_61">
<path transform="matrix(1,0,0,-1,0,345.6)" d="M57.6 38.016H414.72V304.128H57.6Z"/>
</clipPath>
<clipPath id="clip_62">
<path transform="matrix(1,0,0,-1,0,345.6)" d="M57.6 38.016H414.72V304.128H57.6Z"/>
</clipPath>
<clipPath id="clip_63">
<path transform="matrix(1,0,0,-1,0,345.6)" d="M57.6 38.016H414.72V304.128H57.6Z"/>
</clipPath>
<clipPath id="clip_64">
<path transform="matrix(1,0,0,-1,0,345.6)" d="M57.6 38.016H414.72V304.128H57.6Z"/>
</clipPath>
<clipPath id="clip_65">
<path transform="matrix(1,0,0,-1,0,345.6)" d="M57.6 38.016H414.72V304.128H57.6Z"/>
</clipPath>
<clipPath id="clip_66">
<path transform="matrix(1,0,0,-1,0,345.6)" d="M57.6 38.016H414.72V304.128H57.6Z"/>
</clipPath>
<clipPath id="clip_67">
<path transform="matrix(1,0,0,-1,0,345.6)" d="M57.6 38.016H414.72V304.128H57.6Z"/>
</clipPath>
<clipPath id="clip_68">
<path transform="matrix(1,0,0,-1,0,345.6)" d="M57.6 38.016H414.72V304.128H57.6Z"/>
</clipPath>
<clipPath id="clip_69">
<path transform="matrix(1,0,0,-1,0,345.6)" d="M57.6 38.016H414.72V304.128H57.6Z"/>
</clipPath>
<clipPath id="clip_70">
<path transform="matrix(1,0,0,-1,0,345.6)" d="M57.6 38.016H414.72V304.128H57.6Z"/>
</clipPath>
<clipPath id="clip_71">
<path transform="matrix(1,0,0,-1,0,345.6)" d="M57.6 38.016H414.72V304.128H57.6Z"/>
</clipPath>
<clipPath id="clip_72">
<path transform="matrix(1,0,0,-1,0,345.6)" d="M57.6 38.016H414.72V304.128H57.6Z"/>
</clipPath>
<clipPath id="clip_73">
<path transform="matrix(1,0,0,-1,0,345.6)" d="M57.6 38.016H414.72V304.128H57.6Z"/>
</clipPath>
<clipPath id="clip_74">
<path transform="matrix(1,0,0,-1,0,345.6)" d="M57.6 38.016H414.72V304.128H57.6Z"/>
</clipPath>
<clipPath id="clip_75">
<path transform="matrix(1,0,0,-1,0,345.6)" d="M57.6 38.016H414.72V304.128H57.6Z"/>
</clipPath>
<clipPath id="clip_76">
<path transform="matrix(1,0,0,-1,0,345.6)" d="M57.6 38.016H414.72V304.128H57.6Z"/>
</clipPath>
<clipPath id="clip_77">
<path transform="matrix(1,0,0,-1,0,345.6)" d="M57.6 38.016H414.72V304.128H57.6Z"/>
</clipPath>
<clipPath id="clip_78">
<path transform="matrix(1,0,0,-1,0,345.6)" d="M57.6 38.016H414.72V304.128H57.6Z"/>
</clipPath>
<clipPath id="clip_79">
<path transform="matrix(1,0,0,-1,0,345.6)" d="M57.6 38.016H414.72V304.128H57.6Z"/>
</clipPath>
<clipPath id="clip_80">
<path transform="matrix(1,0,0,-1,0,345.6)" d="M57.6 38.016H414.72V304.128H57.6Z"/>
</clipPath>
<clipPath id="clip_81">
<path transform="matrix(1,0,0,-1,0,345.6)" d="M57.6 38.016H414.72V304.128H57.6Z"/>
</clipPath>
<clipPath id="clip_82">
<path transform="matrix(1,0,0,-1,0,345.6)" d="M57.6 38.016H414.72V304.128H57.6Z"/>
</clipPath>
<clipPath id="clip_83">
<path transform="matrix(1,0,0,-1,0,345.6)" d="M57.6 38.016H414.72V304.128H57.6Z"/>
</clipPath>
<clipPath id="clip_84">
<path transform="matrix(1,0,0,-1,0,345.6)" d="M57.6 38.016H414.72V304.128H57.6Z"/>
</clipPath>
<clipPath id="clip_85">
<path transform="matrix(1,0,0,-1,0,345.6)" d="M57.6 38.016H414.72V304.128H57.6Z"/>
</clipPath>
<clipPath id="clip_86">
<path transform="matrix(1,0,0,-1,0,345.6)" d="M57.6 38.016H414.72V304.128H57.6Z"/>
</clipPath>
<clipPath id="clip_87">
<path transform="matrix(1,0,0,-1,0,345.6)" d="M57.6 38.016H414.72V304.128H57.6Z"/>
</clipPath>
<clipPath id="clip_88">
<path transform="matrix(1,0,0,-1,0,345.6)" d="M57.6 38.016H414.72V304.128H57.6Z"/>
</clipPath>
<clipPath id="clip_89">
<path transform="matrix(1,0,0,-1,0,345.6)" d="M57.6 38.016H414.72V304.128H57.6Z"/>
</clipPath>
<clipPath id="clip_90">
<path transform="matrix(1,0,0,-1,0,345.6)" d="M57.6 38.016H414.72V304.128H57.6Z"/>
</clipPath>
<clipPath id="clip_91">
<path transform="matrix(1,0,0,-1,0,345.6)" d="M57.6 38.016H414.72V304.128H57.6Z"/>
</clipPath>
<clipPath id="clip_92">
<path transform="matrix(1,0,0,-1,0,345.6)" d="M57.6 38.016H414.72V304.128H57.6Z"/>
</clipPath>
<clipPath id="clip_93">
<path transform="matrix(1,0,0,-1,0,345.6)" d="M57.6 38.016H414.72V304.128H57.6Z"/>
</clipPath>
<clipPath id="clip_94">
<path transform="matrix(1,0,0,-1,0,345.6)" d="M57.6 38.016H414.72V304.128H57.6Z"/>
</clipPath>
<clipPath id="clip_95">
<path transform="matrix(1,0,0,-1,0,345.6)" d="M57.6 38.016H414.72V304.128H57.6Z"/>
</clipPath>
<clipPath id="clip_96">
<path transform="matrix(1,0,0,-1,0,345.6)" d="M57.6 38.016H414.72V304.128H57.6Z"/>
</clipPath>
<clipPath id="clip_97">
<path transform="matrix(1,0,0,-1,0,345.6)" d="M57.6 38.016H414.72V304.128H57.6Z"/>
</clipPath>
<clipPath id="clip_98">
<path transform="matrix(1,0,0,-1,0,345.6)" d="M57.6 38.016H414.72V304.128H57.6Z"/>
</clipPath>
<clipPath id="clip_99">
<path transform="matrix(1,0,0,-1,0,345.6)" d="M57.6 38.016H414.72V304.128H57.6Z"/>
</clipPath>
<clipPath id="clip_100">
<path transform="matrix(1,0,0,-1,0,345.6)" d="M57.6 38.016H414.72V304.128H57.6Z"/>
</clipPath>
<clipPath id="clip_101">
<path transform="matrix(1,0,0,-1,0,345.6)" d="M57.6 38.016H414.72V304.128H57.6Z"/>
</clipPath>
<clipPath id="clip_102">
<path transform="matrix(.01,0,0,-.01,45.459375,322.17778)" d="M-1021-463H1794V1233H-1021Z"/>
</clipPath>
<clipPath id="clip_103">
<path transform="matrix(1,0,0,-1,0,345.6)" d="M57.6 38.016H414.72V304.128H57.6Z"/>
</clipPath>
<clipPath id="clip_104">
<path transform="matrix(.01,0,0,-.01,104.97938,322.17778)" d="M-1021-463H1794V1233H-1021Z"/>
</clipPath>
<clipPath id="clip_105">
<path transform="matrix(1,0,0,-1,0,345.6)" d="M57.6 38.016H414.72V304.128H57.6Z"/>
</clipPath>
<clipPath id="clip_106">
<path transform="matrix(.01,0,0,-.01,164.49938,322.17778)" d="M-1021-463H1794V1233H-1021Z"/>
</clipPath>
<clipPath id="clip_107">
<path transform="matrix(1,0,0,-1,0,345.6)" d="M57.6 38.016H414.72V304.128H57.6Z"/>
</clipPath>
<clipPath id="clip_108">
<path transform="matrix(1,0,0,-1,0,345.6)" d="M57.6 38.016H414.72V304.128H57.6Z"/>
</clipPath>
<clipPath id="clip_109">
<path transform="matrix(1,0,0,-1,0,345.6)" d="M57.6 38.016H414.72V304.128H57.6Z"/>
</clipPath>
<clipPath id="clip_110">
<path transform="matrix(1,0,0,-1,0,345.6)" d="M57.6 38.016H414.72V304.128H57.6Z"/>
</clipPath>
<clipPath id="clip_111">
<path transform="matrix(1,0,0,-1,0,345.6)" d="M57.6 38.016H414.72V304.128H57.6Z"/>
</clipPath>
<clipPath id="clip_112">
<path transform="matrix(1,0,0,-1,0,345.6)" d="M57.6 38.016H414.72V304.128H57.6Z"/>
</clipPath>
<clipPath id="clip_113">
<path transform="matrix(1,0,0,-1,0,345.6)" d="M57.6 38.016H414.72V304.128H57.6Z"/>
</clipPath>
<clipPath id="clip_114">
<path transform="matrix(1,0,0,-1,0,345.6)" d="M57.6 38.016H414.72V304.128H57.6Z"/>
</clipPath>
<clipPath id="clip_115">
<path transform="matrix(1,0,0,-1,0,345.6)" d="M57.6 38.016H414.72V304.128H57.6Z"/>
</clipPath>
<clipPath id="clip_116">
<path transform="matrix(1,0,0,-1,0,345.6)" d="M57.6 38.016H414.72V304.128H57.6Z"/>
</clipPath>
<clipPath id="clip_117">
<path transform="matrix(1,0,0,-1,0,345.6)" d="M57.6 38.016H414.72V304.128H57.6Z"/>
</clipPath>
</defs>
<path transform="matrix(1,0,0,-1,0,345.6)" d="M0 0H460.8V345.6H0Z" fill="#ffffff"/>
<path transform="matrix(1,0,0,-1,0,345.6)" d="M57.6 38.016H414.72V304.128H57.6Z" fill="#ffffff"/>
<g clip-path="url(#clip_0)">
<path transform="matrix(1,0,0,-1,0,345.6)" d="M51.58297 38.016H55.154169V38.02904H51.58297Z" fill="#1f77b4" fill-opacity=".5"/>
<path transform="matrix(1,0,0,-1,0,345.6)" stroke-width=".73785057" stroke-linecap="butt" stroke-miterlimit="10" stroke-linejoin="miter" fill="none" stroke="#000000" d="M51.58297 38.016H55.154169V38.02904H51.58297Z"/>
</g>
<g clip-path="url(#clip_1)">
<path transform="matrix(1,0,0,-1,0,345.6)" d="M55.154169 38.016H58.725366V38.020349H55.154169Z" fill="#1f77b4" fill-opacity=".5"/>
<path transform="matrix(1,0,0,-1,0,345.6)" stroke-width=".73785057" stroke-linecap="butt" stroke-miterlimit="10" stroke-linejoin="miter" fill="none" stroke="#000000" d="M55.154169 38.016H58.725366V38.020349H55.154169Z"/>
</g>
<g clip-path="url(#clip_2)">
<path transform="matrix(1,0,0,-1,0,345.6)" d="M58.72535 38.016H62.29656V38.037736H58.72535Z" fill="#1f77b4" fill-opacity=".5"/>
<path transform="matrix(1,0,0,-1,0,345.6)" stroke-width=".73785057" stroke-linecap="butt" stroke-miterlimit="10" stroke-linejoin="miter" fill="none" stroke="#000000" d="M58.72535 38.016H62.29656V38.037736H58.72535Z"/>
</g>
<g clip-path="url(#clip_3)">
<path transform="matrix(1,0,0,-1,0,345.6)" d="M62.296575 38.016H65.86777V38.05947H62.296575Z" fill="#1f77b4" fill-opacity=".5"/>
<path transform="matrix(1,0,0,-1,0,345.6)" stroke-width=".73785057" stroke-linecap="butt" stroke-miterlimit="10" stroke-linejoin="miter" fill="none" stroke="#000000" d="M62.296575 38.016H65.86777V38.05947H62.296575Z"/>
</g>
<g clip-path="url(#clip_4)">
<path transform="matrix(1,0,0,-1,0,345.6)" d="M65.86777 38.016H69.438968V38.072515H65.86777Z" fill="#1f77b4" fill-opacity=".5"/>
<path transform="matrix(1,0,0,-1,0,345.6)" stroke-width=".73785057" stroke-linecap="butt" stroke-miterlimit="10" stroke-linejoin="miter" fill="none" stroke="#000000" d="M65.86777 38.016H69.438968V38.072515H65.86777Z"/>
</g>
<g clip-path="url(#clip_5)">
<path transform="matrix(1,0,0,-1,0,345.6)" d="M69.438968 38.016H73.01016V38.142068H69.438968Z" fill="#1f77b4" fill-opacity=".5"/>
<path transform="matrix(1,0,0,-1,0,345.6)" stroke-width=".73785057" stroke-linecap="butt" stroke-miterlimit="10" stroke-linejoin="miter" fill="none" stroke="#000000" d="M69.438968 38.016H73.01016V38.142068H69.438968Z"/>
</g>
<g clip-path="url(#clip_6)">
<path transform="matrix(1,0,0,-1,0,345.6)" d="M73.01016 38.016H76.581378V38.237707H73.01016Z" fill="#1f77b4" fill-opacity=".5"/>
<path transform="matrix(1,0,0,-1,0,345.6)" stroke-width=".73785057" stroke-linecap="butt" stroke-miterlimit="10" stroke-linejoin="miter" fill="none" stroke="#000000" d="M73.01016 38.016H76.581378V38.237707H73.01016Z"/>
</g>
<g clip-path="url(#clip_7)">
<path transform="matrix(1,0,0,-1,0,345.6)" d="M76.581378 38.016H80.15257V38.363775H76.581378Z" fill="#1f77b4" fill-opacity=".5"/>
<path transform="matrix(1,0,0,-1,0,345.6)" stroke-width=".73785057" stroke-linecap="butt" stroke-miterlimit="10" stroke-linejoin="miter" fill="none" stroke="#000000" d="M76.581378 38.016H80.15257V38.363775H76.581378Z"/>
</g>
<g clip-path="url(#clip_8)">
<path transform="matrix(1,0,0,-1,0,345.6)" d="M80.15257 38.016H83.72377V38.61591H80.15257Z" fill="#1f77b4" fill-opacity=".5"/>
<path transform="matrix(1,0,0,-1,0,345.6)" stroke-width=".73785057" stroke-linecap="butt" stroke-miterlimit="10" stroke-linejoin="miter" fill="none" stroke="#000000" d="M80.15257 38.016H83.72377V38.61591H80.15257Z"/>
</g>
<g clip-path="url(#clip_9)">
<path transform="matrix(1,0,0,-1,0,345.6)" d="M83.72377 38.016H87.29497V39.028894H83.72377Z" fill="#1f77b4" fill-opacity=".5"/>
<path transform="matrix(1,0,0,-1,0,345.6)" stroke-width=".73785057" stroke-linecap="butt" stroke-miterlimit="10" stroke-linejoin="miter" fill="none" stroke="#000000" d="M83.72377 38.016H87.29497V39.028894H83.72377Z"/>
</g>
<g clip-path="url(#clip_10)">
<path transform="matrix(1,0,0,-1,0,345.6)" d="M87.29495 38.016H90.86616V39.50708H87.29495Z" fill="#1f77b4" fill-opacity=".5"/>
<path transform="matrix(1,0,0,-1,0,345.6)" stroke-width=".73785057" stroke-linecap="butt" stroke-miterlimit="10" stroke-linejoin="miter" fill="none" stroke="#000000" d="M87.29495 38.016H90.86616V39.50708H87.29495Z"/>
</g>
<g clip-path="url(#clip_11)">
<path transform="matrix(1,0,0,-1,0,345.6)" d="M90.86617 38.016H94.43737V40.085256H90.86617Z" fill="#1f77b4" fill-opacity=".5"/>
<path transform="matrix(1,0,0,-1,0,345.6)" stroke-width=".73785057" stroke-linecap="butt" stroke-miterlimit="10" stroke-linejoin="miter" fill="none" stroke="#000000" d="M90.86617 38.016H94.43737V40.085256H90.86617Z"/>
</g>
<g clip-path="url(#clip_12)">
<path transform="matrix(1,0,0,-1,0,345.6)" d="M94.43737 38.016H98.00857V41.67197H94.43737Z" fill="#1f77b4" fill-opacity=".5"/>
<path transform="matrix(1,0,0,-1,0,345.6)" stroke-width=".73785057" stroke-linecap="butt" stroke-miterlimit="10" stroke-linejoin="miter" fill="none" stroke="#000000" d="M94.43737 38.016H98.00857V41.67197H94.43737Z"/>
</g>
<g clip-path="url(#clip_13)">
<path transform="matrix(1,0,0,-1,0,345.6)" d="M98.00857 38.016H101.579769V43.458658H98.00857Z" fill="#1f77b4" fill-opacity=".5"/>
<path transform="matrix(1,0,0,-1,0,345.6)" stroke-width=".73785057" stroke-linecap="butt" stroke-miterlimit="10" stroke-linejoin="miter" fill="none" stroke="#000000" d="M98.00857 38.016H101.579769V43.458658H98.00857Z"/>
</g>
<g clip-path="url(#clip_14)">
<path transform="matrix(1,0,0,-1,0,345.6)" d="M101.579769 38.016H105.15098V45.69745H101.579769Z" fill="#1f77b4" fill-opacity=".5"/>
<path transform="matrix(1,0,0,-1,0,345.6)" stroke-width=".73785057" stroke-linecap="butt" stroke-miterlimit="10" stroke-linejoin="miter" fill="none" stroke="#000000" d="M101.579769 38.016H105.15098V45.69745H101.579769Z"/>
</g>
<g clip-path="url(#clip_15)">
<path transform="matrix(1,0,0,-1,0,345.6)" d="M105.15098 38.016H108.722179V49.205617H105.15098Z" fill="#1f77b4" fill-opacity=".5"/>
<path transform="matrix(1,0,0,-1,0,345.6)" stroke-width=".73785057" stroke-linecap="butt" stroke-miterlimit="10" stroke-linejoin="miter" fill="none" stroke="#000000" d="M105.15098 38.016H108.722179V49.205617H105.15098Z"/>
</g>
<g clip-path="url(#clip_16)">
<path transform="matrix(1,0,0,-1,0,345.6)" d="M108.722179 38.016H112.293369V53.813615H108.722179Z" fill="#1f77b4" fill-opacity=".5"/>
<path transform="matrix(1,0,0,-1,0,345.6)" stroke-width=".73785057" stroke-linecap="butt" stroke-miterlimit="10" stroke-linejoin="miter" fill="none" stroke="#000000" d="M108.722179 38.016H112.293369V53.813615H108.722179Z"/>
</g>
<g clip-path="url(#clip_17)">
<path transform="matrix(1,0,0,-1,0,345.6)" d="M112.293369 38.016H115.86456V59.834447H112.293369Z" fill="#1f77b4" fill-opacity=".5"/>
<path transform="matrix(1,0,0,-1,0,345.6)" stroke-width=".73785057" stroke-linecap="butt" stroke-miterlimit="10" stroke-linejoin="miter" fill="none" stroke="#000000" d="M112.293369 38.016H115.86456V59.834447H112.293369Z"/>
</g>
<g clip-path="url(#clip_18)">
<path transform="matrix(1,0,0,-1,0,345.6)" d="M115.86456 38.016H119.43577V67.959308H115.86456Z" fill="#1f77b4" fill-opacity=".5"/>
<path transform="matrix(1,0,0,-1,0,345.6)" stroke-width=".73785057" stroke-linecap="butt" stroke-miterlimit="10" stroke-linejoin="miter" fill="none" stroke="#000000" d="M115.86456 38.016H119.43577V67.959308H115.86456Z"/>
</g>
<g clip-path="url(#clip_19)">
<path transform="matrix(1,0,0,-1,0,345.6)" d="M119.435779 38.016H123.00698V77.38397H119.435779Z" fill="#1f77b4" fill-opacity=".5"/>
<path transform="matrix(1,0,0,-1,0,345.6)" stroke-width=".73785057" stroke-linecap="butt" stroke-miterlimit="10" stroke-linejoin="miter" fill="none" stroke="#000000" d="M119.435779 38.016H123.00698V77.38397H119.435779Z"/>
</g>
<g clip-path="url(#clip_20)">
<path transform="matrix(1,0,0,-1,0,345.6)" d="M123.00697 38.016H126.57817V90.64719H123.00697Z" fill="#1f77b4" fill-opacity=".5"/>
<path transform="matrix(1,0,0,-1,0,345.6)" stroke-width=".73785057" stroke-linecap="butt" stroke-miterlimit="10" stroke-linejoin="miter" fill="none" stroke="#000000" d="M123.00697 38.016H126.57817V90.64719H123.00697Z"/>
</g>
<g clip-path="url(#clip_21)">
<path transform="matrix(1,0,0,-1,0,345.6)" d="M126.57817 38.016H130.14937V103.90605H126.57817Z" fill="#1f77b4" fill-opacity=".5"/>
<path transform="matrix(1,0,0,-1,0,345.6)" stroke-width=".73785057" stroke-linecap="butt" stroke-miterlimit="10" stroke-linejoin="miter" fill="none" stroke="#000000" d="M126.57817 38.016H130.14937V103.90605H126.57817Z"/>
</g>
<g clip-path="url(#clip_22)">
<path transform="matrix(1,0,0,-1,0,345.6)" d="M130.14937 38.016H133.72057V120.31227H130.14937Z" fill="#1f77b4" fill-opacity=".5"/>
<path transform="matrix(1,0,0,-1,0,345.6)" stroke-width=".73785057" stroke-linecap="butt" stroke-miterlimit="10" stroke-linejoin="miter" fill="none" stroke="#000000" d="M130.14937 38.016H133.72057V120.31227H130.14937Z"/>
</g>
<g clip-path="url(#clip_23)">
<path transform="matrix(1,0,0,-1,0,345.6)" d="M133.72058 38.016H137.29178V139.2442H133.72058Z" fill="#1f77b4" fill-opacity=".5"/>
<path transform="matrix(1,0,0,-1,0,345.6)" stroke-width=".73785057" stroke-linecap="butt" stroke-miterlimit="10" stroke-linejoin="miter" fill="none" stroke="#000000" d="M133.72058 38.016H137.29178V139.2442H133.72058Z"/>
</g>
<g clip-path="url(#clip_24)">
<path transform="matrix(1,0,0,-1,0,345.6)" d="M137.29178 38.016H140.86298V158.9021H137.29178Z" fill="#1f77b4" fill-opacity=".5"/>
<path transform="matrix(1,0,0,-1,0,345.6)" stroke-width=".73785057" stroke-linecap="butt" stroke-miterlimit="10" stroke-linejoin="miter" fill="none" stroke="#000000" d="M137.29178 38.016H140.86298V158.9021H137.29178Z"/>
</g>
<g clip-path="url(#clip_25)">
<path transform="matrix(1,0,0,-1,0,345.6)" d="M140.86298 38.016H144.43418V178.20789H140.86298Z" fill="#1f77b4" fill-opacity=".5"/>
<path transform="matrix(1,0,0,-1,0,345.6)" stroke-width=".73785057" stroke-linecap="butt" stroke-miterlimit="10" stroke-linejoin="miter" fill="none" stroke="#000000" d="M140.86298 38.016H144.43418V178.20789H140.86298Z"/>
</g>
<g clip-path="url(#clip_26)">
<path transform="matrix(1,0,0,-1,0,345.6)" d="M144.43418 38.016H148.00537V200.17414H144.43418Z" fill="#1f77b4" fill-opacity=".5"/>
<path transform="matrix(1,0,0,-1,0,345.6)" stroke-width=".73785057" stroke-linecap="butt" stroke-miterlimit="10" stroke-linejoin="miter" fill="none" stroke="#000000" d="M144.43418 38.016H148.00537V200.17414H144.43418Z"/>
</g>
<g clip-path="url(#clip_27)">
<path transform="matrix(1,0,0,-1,0,345.6)" d="M148.00537 38.016H151.57657V219.31906H148.00537Z" fill="#1f77b4" fill-opacity=".5"/>
<path transform="matrix(1,0,0,-1,0,345.6)" stroke-width=".73785057" stroke-linecap="butt" stroke-miterlimit="10" stroke-linejoin="miter" fill="none" stroke="#000000" d="M148.00537 38.016H151.57657V219.31906H148.00537Z"/>
</g>
<g clip-path="url(#clip_28)">
<path transform="matrix(1,0,0,-1,0,345.6)" d="M151.57657 38.016H155.14778V234.51242H151.57657Z" fill="#1f77b4" fill-opacity=".5"/>
<path transform="matrix(1,0,0,-1,0,345.6)" stroke-width=".73785057" stroke-linecap="butt" stroke-miterlimit="10" stroke-linejoin="miter" fill="none" stroke="#000000" d="M151.57657 38.016H155.14778V234.51242H151.57657Z"/>
</g>
<g clip-path="url(#clip_29)">
<path transform="matrix(1,0,0,-1,0,345.6)" d="M155.14777 38.016H158.71897V250.57086H155.14777Z" fill="#1f77b4" fill-opacity=".5"/>
<path transform="matrix(1,0,0,-1,0,345.6)" stroke-width=".73785057" stroke-linecap="butt" stroke-miterlimit="10" stroke-linejoin="miter" fill="none" stroke="#000000" d="M155.14777 38.016H158.71897V250.57086H155.14777Z"/>
</g>
<g clip-path="url(#clip_30)">
<path transform="matrix(1,0,0,-1,0,345.6)" d="M158.71897 38.016H162.29018V262.92118H158.71897Z" fill="#1f77b4" fill-opacity=".5"/>
<path transform="matrix(1,0,0,-1,0,345.6)" stroke-width=".73785057" stroke-linecap="butt" stroke-miterlimit="10" stroke-linejoin="miter" fill="none" stroke="#000000" d="M158.71897 38.016H162.29018V262.92118H158.71897Z"/>
</g>
<g clip-path="url(#clip_31)">
<path transform="matrix(1,0,0,-1,0,345.6)" d="M162.29018 38.016H165.86138V273.93257H162.29018Z" fill="#1f77b4" fill-opacity=".5"/>
<path transform="matrix(1,0,0,-1,0,345.6)" stroke-width=".73785057" stroke-linecap="butt" stroke-miterlimit="10" stroke-linejoin="miter" fill="none" stroke="#000000" d="M162.29018 38.016H165.86138V273.93257H162.29018Z"/>
</g>
<g clip-path="url(#clip_32)">
<path transform="matrix(1,0,0,-1,0,345.6)" d="M165.86138 38.016H169.43257V280.1186H165.86138Z" fill="#1f77b4" fill-opacity=".5"/>
<path transform="matrix(1,0,0,-1,0,345.6)" stroke-width=".73785057" stroke-linecap="butt" stroke-miterlimit="10" stroke-linejoin="miter" fill="none" stroke="#000000" d="M165.86138 38.016H169.43257V280.1186H165.86138Z"/>
</g>
<g clip-path="url(#clip_33)">
<path transform="matrix(1,0,0,-1,0,345.6)" d="M169.43257 38.016H173.00377V286.0264H169.43257Z" fill="#1f77b4" fill-opacity=".5"/>
<path transform="matrix(1,0,0,-1,0,345.6)" stroke-width=".73785057" stroke-linecap="butt" stroke-miterlimit="10" stroke-linejoin="miter" fill="none" stroke="#000000" d="M169.43257 38.016H173.00377V286.0264H169.43257Z"/>
</g>
<g clip-path="url(#clip_34)">
<path transform="matrix(1,0,0,-1,0,345.6)" d="M173.00377 38.016H176.57497V289.6867H173.00377Z" fill="#1f77b4" fill-opacity=".5"/>
<path transform="matrix(1,0,0,-1,0,345.6)" stroke-width=".73785057" stroke-linecap="butt" stroke-miterlimit="10" stroke-linejoin="miter" fill="none" stroke="#000000" d="M173.00377 38.016H176.57497V289.6867H173.00377Z"/>
</g>
<g clip-path="url(#clip_35)">
<path transform="matrix(1,0,0,-1,0,345.6)" d="M176.57497 38.016H180.14617V290.56919H176.57497Z" fill="#1f77b4" fill-opacity=".5"/>
<path transform="matrix(1,0,0,-1,0,345.6)" stroke-width=".73785057" stroke-linecap="butt" stroke-miterlimit="10" stroke-linejoin="miter" fill="none" stroke="#000000" d="M176.57497 38.016H180.14617V290.56919H176.57497Z"/>
</g>
<g clip-path="url(#clip_36)">
<path transform="matrix(1,0,0,-1,0,345.6)" d="M180.14618 38.016H183.71738V291.456H180.14618Z" fill="#1f77b4" fill-opacity=".5"/>
<path transform="matrix(1,0,0,-1,0,345.6)" stroke-width=".73785057" stroke-linecap="butt" stroke-miterlimit="10" stroke-linejoin="miter" fill="none" stroke="#000000" d="M180.14618 38.016H183.71738V291.456H180.14618Z"/>
</g>
<g clip-path="url(#clip_37)">
<path transform="matrix(1,0,0,-1,0,345.6)" d="M183.71738 38.016H187.28858V285.9742H183.71738Z" fill="#1f77b4" fill-opacity=".5"/>
<path transform="matrix(1,0,0,-1,0,345.6)" stroke-width=".73785057" stroke-linecap="butt" stroke-miterlimit="10" stroke-linejoin="miter" fill="none" stroke="#000000" d="M183.71738 38.016H187.28858V285.9742H183.71738Z"/>
</g>
<g clip-path="url(#clip_38)">
<path transform="matrix(1,0,0,-1,0,345.6)" d="M187.28858 38.016H190.85977V277.28425H187.28858Z" fill="#1f77b4" fill-opacity=".5"/>
<path transform="matrix(1,0,0,-1,0,345.6)" stroke-width=".73785057" stroke-linecap="butt" stroke-miterlimit="10" stroke-linejoin="miter" fill="none" stroke="#000000" d="M187.28858 38.016H190.85977V277.28425H187.28858Z"/>
</g>
<g clip-path="url(#clip_39)">
<path transform="matrix(1,0,0,-1,0,345.6)" d="M190.85977 38.016H194.43097V259.12178H190.85977Z" fill="#1f77b4" fill-opacity=".5"/>
<path transform="matrix(1,0,0,-1,0,345.6)" stroke-width=".73785057" stroke-linecap="butt" stroke-miterlimit="10" stroke-linejoin="miter" fill="none" stroke="#000000" d="M190.85977 38.016H194.43097V259.12178H190.85977Z"/>
</g>
<g clip-path="url(#clip_40)">
<path transform="matrix(1,0,0,-1,0,345.6)" d="M194.43097 38.016H198.00217V230.58258H194.43097Z" fill="#1f77b4" fill-opacity=".5"/>
<path transform="matrix(1,0,0,-1,0,345.6)" stroke-width=".73785057" stroke-linecap="butt" stroke-miterlimit="10" stroke-linejoin="miter" fill="none" stroke="#000000" d="M194.43097 38.016H198.00217V230.58258H194.43097Z"/>
</g>
<g clip-path="url(#clip_41)">
<path transform="matrix(1,0,0,-1,0,345.6)" d="M198.00217 38.016H201.57338V193.90117H198.00217Z" fill="#1f77b4" fill-opacity=".5"/>
<path transform="matrix(1,0,0,-1,0,345.6)" stroke-width=".73785057" stroke-linecap="butt" stroke-miterlimit="10" stroke-linejoin="miter" fill="none" stroke="#000000" d="M198.00217 38.016H201.57338V193.90117H198.00217Z"/>
</g>
<g clip-path="url(#clip_42)">
<path transform="matrix(1,0,0,-1,0,345.6)" d="M201.57337 38.016H205.14456V144.39125H201.57337Z" fill="#1f77b4" fill-opacity=".5"/>
<path transform="matrix(1,0,0,-1,0,345.6)" stroke-width=".73785057" stroke-linecap="butt" stroke-miterlimit="10" stroke-linejoin="miter" fill="none" stroke="#000000" d="M201.57337 38.016H205.14456V144.39125H201.57337Z"/>
</g>
<g clip-path="url(#clip_43)">
<path transform="matrix(1,0,0,-1,0,345.6)" d="M205.14456 38.016H208.71578V56.887067H205.14456Z" fill="#1f77b4" fill-opacity=".5"/>
<path transform="matrix(1,0,0,-1,0,345.6)" stroke-width=".73785057" stroke-linecap="butt" stroke-miterlimit="10" stroke-linejoin="miter" fill="none" stroke="#000000" d="M205.14456 38.016H208.71578V56.887067H205.14456Z"/>
</g>
<g clip-path="url(#clip_44)">
<path transform="matrix(1,0,0,-1,0,345.6)" d="M70.45673 38.016H74.02793V38.024694H70.45673Z" fill="#ff7f0e" fill-opacity=".5"/>
<path transform="matrix(1,0,0,-1,0,345.6)" stroke-width=".5212399" stroke-linecap="butt" stroke-miterlimit="10" stroke-linejoin="miter" fill="none" stroke="#000000" d="M70.45673 38.016H74.02793V38.024694H70.45673Z"/>
</g>
<g clip-path="url(#clip_45)">
<path transform="matrix(1,0,0,-1,0,345.6)" d="M74.02793 38.016H77.59913V38.020349H74.02793Z" fill="#ff7f0e" fill-opacity=".5"/>
<path transform="matrix(1,0,0,-1,0,345.6)" stroke-width=".5212399" stroke-linecap="butt" stroke-miterlimit="10" stroke-linejoin="miter" fill="none" stroke="#000000" d="M74.02793 38.016H77.59913V38.020349H74.02793Z"/>
</g>
<g clip-path="url(#clip_46)">
<path transform="matrix(1,0,0,-1,0,345.6)" d="M77.59911 38.016H81.17033V38.020349H77.59911Z" fill="#ff7f0e" fill-opacity=".5"/>
<path transform="matrix(1,0,0,-1,0,345.6)" stroke-width=".5212399" stroke-linecap="butt" stroke-miterlimit="10" stroke-linejoin="miter" fill="none" stroke="#000000" d="M77.59911 38.016H81.17033V38.020349H77.59911Z"/>
</g>
<g clip-path="url(#clip_47)">
<path transform="matrix(1,0,0,-1,0,345.6)" d="M81.17034 38.016H84.74154V38.024694H81.17034Z" fill="#ff7f0e" fill-opacity=".5"/>
<path transform="matrix(1,0,0,-1,0,345.6)" stroke-width=".5212399" stroke-linecap="butt" stroke-miterlimit="10" stroke-linejoin="miter" fill="none" stroke="#000000" d="M81.17034 38.016H84.74154V38.024694H81.17034Z"/>
</g>
<g clip-path="url(#clip_48)">
<path transform="matrix(1,0,0,-1,0,345.6)" d="M84.74154 38.016H88.31274V38.037736H84.74154Z" fill="#ff7f0e" fill-opacity=".5"/>
<path transform="matrix(1,0,0,-1,0,345.6)" stroke-width=".5212399" stroke-linecap="butt" stroke-miterlimit="10" stroke-linejoin="miter" fill="none" stroke="#000000" d="M84.74154 38.016H88.31274V38.037736H84.74154Z"/>
</g>
<g clip-path="url(#clip_49)">
<path transform="matrix(1,0,0,-1,0,345.6)" d="M88.31274 38.016H91.88393V38.05947H88.31274Z" fill="#ff7f0e" fill-opacity=".5"/>
<path transform="matrix(1,0,0,-1,0,345.6)" stroke-width=".5212399" stroke-linecap="butt" stroke-miterlimit="10" stroke-linejoin="miter" fill="none" stroke="#000000" d="M88.31274 38.016H91.88393V38.05947H88.31274Z"/>
</g>
<g clip-path="url(#clip_50)">
<path transform="matrix(1,0,0,-1,0,345.6)" d="M91.88393 38.016H95.45514V38.037736H91.88393Z" fill="#ff7f0e" fill-opacity=".5"/>
<path transform="matrix(1,0,0,-1,0,345.6)" stroke-width=".5212399" stroke-linecap="butt" stroke-miterlimit="10" stroke-linejoin="miter" fill="none" stroke="#000000" d="M91.88393 38.016H95.45514V38.037736H91.88393Z"/>
</g>
<g clip-path="url(#clip_51)">
<path transform="matrix(1,0,0,-1,0,345.6)" d="M95.45514 38.016H99.02634V38.081209H95.45514Z" fill="#ff7f0e" fill-opacity=".5"/>
<path transform="matrix(1,0,0,-1,0,345.6)" stroke-width=".5212399" stroke-linecap="butt" stroke-miterlimit="10" stroke-linejoin="miter" fill="none" stroke="#000000" d="M95.45514 38.016H99.02634V38.081209H95.45514Z"/>
</g>
<g clip-path="url(#clip_52)">
<path transform="matrix(1,0,0,-1,0,345.6)" d="M99.02634 38.016H102.597537V38.16815H99.02634Z" fill="#ff7f0e" fill-opacity=".5"/>
<path transform="matrix(1,0,0,-1,0,345.6)" stroke-width=".5212399" stroke-linecap="butt" stroke-miterlimit="10" stroke-linejoin="miter" fill="none" stroke="#000000" d="M99.02634 38.016H102.597537V38.16815H99.02634Z"/>
</g>
<g clip-path="url(#clip_53)">
<path transform="matrix(1,0,0,-1,0,345.6)" d="M102.597537 38.016H106.16873V38.27683H102.597537Z" fill="#ff7f0e" fill-opacity=".5"/>
<path transform="matrix(1,0,0,-1,0,345.6)" stroke-width=".5212399" stroke-linecap="butt" stroke-miterlimit="10" stroke-linejoin="miter" fill="none" stroke="#000000" d="M102.597537 38.016H106.16873V38.27683H102.597537Z"/>
</g>
<g clip-path="url(#clip_54)">
<path transform="matrix(1,0,0,-1,0,345.6)" d="M106.16872 38.016H109.73993V38.38116H106.16872Z" fill="#ff7f0e" fill-opacity=".5"/>
<path transform="matrix(1,0,0,-1,0,345.6)" stroke-width=".5212399" stroke-linecap="butt" stroke-miterlimit="10" stroke-linejoin="miter" fill="none" stroke="#000000" d="M106.16872 38.016H109.73993V38.38116H106.16872Z"/>
</g>
<g clip-path="url(#clip_55)">
<path transform="matrix(1,0,0,-1,0,345.6)" d="M109.739948 38.016H113.311138V38.681119H109.739948Z" fill="#ff7f0e" fill-opacity=".5"/>
<path transform="matrix(1,0,0,-1,0,345.6)" stroke-width=".5212399" stroke-linecap="butt" stroke-miterlimit="10" stroke-linejoin="miter" fill="none" stroke="#000000" d="M109.739948 38.016H113.311138V38.681119H109.739948Z"/>
</g>
<g clip-path="url(#clip_56)">
<path transform="matrix(1,0,0,-1,0,345.6)" d="M113.311138 38.016H116.88233V39.007158H113.311138Z" fill="#ff7f0e" fill-opacity=".5"/>
<path transform="matrix(1,0,0,-1,0,345.6)" stroke-width=".5212399" stroke-linecap="butt" stroke-miterlimit="10" stroke-linejoin="miter" fill="none" stroke="#000000" d="M113.311138 38.016H116.88233V39.007158H113.311138Z"/>
</g>
<g clip-path="url(#clip_57)">
<path transform="matrix(1,0,0,-1,0,345.6)" d="M116.88233 38.016H120.45354V39.511426H116.88233Z" fill="#ff7f0e" fill-opacity=".5"/>
<path transform="matrix(1,0,0,-1,0,345.6)" stroke-width=".5212399" stroke-linecap="butt" stroke-miterlimit="10" stroke-linejoin="miter" fill="none" stroke="#000000" d="M116.88233 38.016H120.45354V39.511426H116.88233Z"/>
</g>
<g clip-path="url(#clip_58)">
<path transform="matrix(1,0,0,-1,0,345.6)" d="M120.45354 38.016H124.024738V40.480848H120.45354Z" fill="#ff7f0e" fill-opacity=".5"/>
<path transform="matrix(1,0,0,-1,0,345.6)" stroke-width=".5212399" stroke-linecap="butt" stroke-miterlimit="10" stroke-linejoin="miter" fill="none" stroke="#000000" d="M120.45354 38.016H124.024738V40.480848H120.45354Z"/>
</g>
<g clip-path="url(#clip_59)">
<path transform="matrix(1,0,0,-1,0,345.6)" d="M124.02474 38.016H127.59595V41.845857H124.02474Z" fill="#ff7f0e" fill-opacity=".5"/>
<path transform="matrix(1,0,0,-1,0,345.6)" stroke-width=".5212399" stroke-linecap="butt" stroke-miterlimit="10" stroke-linejoin="miter" fill="none" stroke="#000000" d="M124.02474 38.016H127.59595V41.845857H124.02474Z"/>
</g>
<g clip-path="url(#clip_60)">
<path transform="matrix(1,0,0,-1,0,345.6)" d="M127.59594 38.016H131.16713V44.019445H127.59594Z" fill="#ff7f0e" fill-opacity=".5"/>
<path transform="matrix(1,0,0,-1,0,345.6)" stroke-width=".5212399" stroke-linecap="butt" stroke-miterlimit="10" stroke-linejoin="miter" fill="none" stroke="#000000" d="M127.59594 38.016H131.16713V44.019445H127.59594Z"/>
</g>
<g clip-path="url(#clip_61)">
<path transform="matrix(1,0,0,-1,0,345.6)" d="M131.16713 38.016H134.73834V46.27997H131.16713Z" fill="#ff7f0e" fill-opacity=".5"/>
<path transform="matrix(1,0,0,-1,0,345.6)" stroke-width=".5212399" stroke-linecap="butt" stroke-miterlimit="10" stroke-linejoin="miter" fill="none" stroke="#000000" d="M131.16713 38.016H134.73834V46.27997H131.16713Z"/>
</g>
<g clip-path="url(#clip_62)">
<path transform="matrix(1,0,0,-1,0,345.6)" d="M134.73834 38.016H138.30954V50.28806H134.73834Z" fill="#ff7f0e" fill-opacity=".5"/>
<path transform="matrix(1,0,0,-1,0,345.6)" stroke-width=".5212399" stroke-linecap="butt" stroke-miterlimit="10" stroke-linejoin="miter" fill="none" stroke="#000000" d="M134.73834 38.016H138.30954V50.28806H134.73834Z"/>
</g>
<g clip-path="url(#clip_63)">
<path transform="matrix(1,0,0,-1,0,345.6)" d="M138.30954 38.016H141.88076V55.791578H138.30954Z" fill="#ff7f0e" fill-opacity=".5"/>
<path transform="matrix(1,0,0,-1,0,345.6)" stroke-width=".5212399" stroke-linecap="butt" stroke-miterlimit="10" stroke-linejoin="miter" fill="none" stroke="#000000" d="M138.30954 38.016H141.88076V55.791578H138.30954Z"/>
</g>
<g clip-path="url(#clip_64)">
<path transform="matrix(1,0,0,-1,0,345.6)" d="M141.88074 38.016H145.45194V62.46883H141.88074Z" fill="#ff7f0e" fill-opacity=".5"/>
<path transform="matrix(1,0,0,-1,0,345.6)" stroke-width=".5212399" stroke-linecap="butt" stroke-miterlimit="10" stroke-linejoin="miter" fill="none" stroke="#000000" d="M141.88074 38.016H145.45194V62.46883H141.88074Z"/>
</g>
<g clip-path="url(#clip_65)">
<path transform="matrix(1,0,0,-1,0,345.6)" d="M145.45194 38.016H149.02313V71.45878H145.45194Z" fill="#ff7f0e" fill-opacity=".5"/>
<path transform="matrix(1,0,0,-1,0,345.6)" stroke-width=".5212399" stroke-linecap="butt" stroke-miterlimit="10" stroke-linejoin="miter" fill="none" stroke="#000000" d="M145.45194 38.016H149.02313V71.45878H145.45194Z"/>
</g>
<g clip-path="url(#clip_66)">
<path transform="matrix(1,0,0,-1,0,345.6)" d="M149.02313 38.016H152.59433V82.67448H149.02313Z" fill="#ff7f0e" fill-opacity=".5"/>
<path transform="matrix(1,0,0,-1,0,345.6)" stroke-width=".5212399" stroke-linecap="butt" stroke-miterlimit="10" stroke-linejoin="miter" fill="none" stroke="#000000" d="M149.02313 38.016H152.59433V82.67448H149.02313Z"/>
</g>
<g clip-path="url(#clip_67)">
<path transform="matrix(1,0,0,-1,0,345.6)" d="M152.59435 38.016H156.16555V94.80743H152.59435Z" fill="#ff7f0e" fill-opacity=".5"/>
<path transform="matrix(1,0,0,-1,0,345.6)" stroke-width=".5212399" stroke-linecap="butt" stroke-miterlimit="10" stroke-linejoin="miter" fill="none" stroke="#000000" d="M152.59435 38.016H156.16555V94.80743H152.59435Z"/>
</g>
<g clip-path="url(#clip_68)">
<path transform="matrix(1,0,0,-1,0,345.6)" d="M156.16555 38.016H159.73674V109.0618H156.16555Z" fill="#ff7f0e" fill-opacity=".5"/>
<path transform="matrix(1,0,0,-1,0,345.6)" stroke-width=".5212399" stroke-linecap="butt" stroke-miterlimit="10" stroke-linejoin="miter" fill="none" stroke="#000000" d="M156.16555 38.016H159.73674V109.0618H156.16555Z"/>
</g>
<g clip-path="url(#clip_69)">
<path transform="matrix(1,0,0,-1,0,345.6)" d="M159.73674 38.016H163.30794V123.09011H159.73674Z" fill="#ff7f0e" fill-opacity=".5"/>
<path transform="matrix(1,0,0,-1,0,345.6)" stroke-width=".5212399" stroke-linecap="butt" stroke-miterlimit="10" stroke-linejoin="miter" fill="none" stroke="#000000" d="M159.73674 38.016H163.30794V123.09011H159.73674Z"/>
</g>
<g clip-path="url(#clip_70)">
<path transform="matrix(1,0,0,-1,0,345.6)" d="M163.30794 38.016H166.87914V139.34418H163.30794Z" fill="#ff7f0e" fill-opacity=".5"/>
<path transform="matrix(1,0,0,-1,0,345.6)" stroke-width=".5212399" stroke-linecap="butt" stroke-miterlimit="10" stroke-linejoin="miter" fill="none" stroke="#000000" d="M163.30794 38.016H166.87914V139.34418H163.30794Z"/>
</g>
<g clip-path="url(#clip_71)">
<path transform="matrix(1,0,0,-1,0,345.6)" d="M166.87914 38.016H170.45034V155.70693H166.87914Z" fill="#ff7f0e" fill-opacity=".5"/>
<path transform="matrix(1,0,0,-1,0,345.6)" stroke-width=".5212399" stroke-linecap="butt" stroke-miterlimit="10" stroke-linejoin="miter" fill="none" stroke="#000000" d="M166.87914 38.016H170.45034V155.70693H166.87914Z"/>
</g>
<g clip-path="url(#clip_72)">
<path transform="matrix(1,0,0,-1,0,345.6)" d="M170.45034 38.016H174.02155V170.43949H170.45034Z" fill="#ff7f0e" fill-opacity=".5"/>
<path transform="matrix(1,0,0,-1,0,345.6)" stroke-width=".5212399" stroke-linecap="butt" stroke-miterlimit="10" stroke-linejoin="miter" fill="none" stroke="#000000" d="M170.45034 38.016H174.02155V170.43949H170.45034Z"/>
</g>
<g clip-path="url(#clip_73)">
<path transform="matrix(1,0,0,-1,0,345.6)" d="M174.02153 38.016H177.59275V183.91571H174.02153Z" fill="#ff7f0e" fill-opacity=".5"/>
<path transform="matrix(1,0,0,-1,0,345.6)" stroke-width=".5212399" stroke-linecap="butt" stroke-miterlimit="10" stroke-linejoin="miter" fill="none" stroke="#000000" d="M174.02153 38.016H177.59275V183.91571H174.02153Z"/>
</g>
<g clip-path="url(#clip_74)">
<path transform="matrix(1,0,0,-1,0,345.6)" d="M177.59275 38.016H181.16394V196.98766H177.59275Z" fill="#ff7f0e" fill-opacity=".5"/>
<path transform="matrix(1,0,0,-1,0,345.6)" stroke-width=".5212399" stroke-linecap="butt" stroke-miterlimit="10" stroke-linejoin="miter" fill="none" stroke="#000000" d="M177.59275 38.016H181.16394V196.98766H177.59275Z"/>
</g>
<g clip-path="url(#clip_75)">
<path transform="matrix(1,0,0,-1,0,345.6)" d="M181.16394 38.016H184.73514V206.49057H181.16394Z" fill="#ff7f0e" fill-opacity=".5"/>
<path transform="matrix(1,0,0,-1,0,345.6)" stroke-width=".5212399" stroke-linecap="butt" stroke-miterlimit="10" stroke-linejoin="miter" fill="none" stroke="#000000" d="M181.16394 38.016H184.73514V206.49057H181.16394Z"/>
</g>
<g clip-path="url(#clip_76)">
<path transform="matrix(1,0,0,-1,0,345.6)" d="M184.73514 38.016H188.30634V218.88H184.73514Z" fill="#ff7f0e" fill-opacity=".5"/>
<path transform="matrix(1,0,0,-1,0,345.6)" stroke-width=".5212399" stroke-linecap="butt" stroke-miterlimit="10" stroke-linejoin="miter" fill="none" stroke="#000000" d="M184.73514 38.016H188.30634V218.88H184.73514Z"/>
</g>
<g clip-path="url(#clip_77)">
<path transform="matrix(1,0,0,-1,0,345.6)" d="M188.30634 38.016H191.87754V226.23107H188.30634Z" fill="#ff7f0e" fill-opacity=".5"/>
<path transform="matrix(1,0,0,-1,0,345.6)" stroke-width=".5212399" stroke-linecap="butt" stroke-miterlimit="10" stroke-linejoin="miter" fill="none" stroke="#000000" d="M188.30634 38.016H191.87754V226.23107H188.30634Z"/>
</g>
<g clip-path="url(#clip_78)">
<path transform="matrix(1,0,0,-1,0,345.6)" d="M191.87755 38.016H195.44875V237.86409H191.87755Z" fill="#ff7f0e" fill-opacity=".5"/>
<path transform="matrix(1,0,0,-1,0,345.6)" stroke-width=".5212399" stroke-linecap="butt" stroke-miterlimit="10" stroke-linejoin="miter" fill="none" stroke="#000000" d="M191.87755 38.016H195.44875V237.86409H191.87755Z"/>
</g>
<g clip-path="url(#clip_79)">
<path transform="matrix(1,0,0,-1,0,345.6)" d="M195.44873 38.016H199.01995V247.41483H195.44873Z" fill="#ff7f0e" fill-opacity=".5"/>
<path transform="matrix(1,0,0,-1,0,345.6)" stroke-width=".5212399" stroke-linecap="butt" stroke-miterlimit="10" stroke-linejoin="miter" fill="none" stroke="#000000" d="M195.44873 38.016H199.01995V247.41483H195.44873Z"/>
</g>
<g clip-path="url(#clip_80)">
<path transform="matrix(1,0,0,-1,0,345.6)" d="M199.01995 38.016H202.59114V251.6055H199.01995Z" fill="#ff7f0e" fill-opacity=".5"/>
<path transform="matrix(1,0,0,-1,0,345.6)" stroke-width=".5212399" stroke-linecap="butt" stroke-miterlimit="10" stroke-linejoin="miter" fill="none" stroke="#000000" d="M199.01995 38.016H202.59114V251.6055H199.01995Z"/>
</g>
<g clip-path="url(#clip_81)">
<path transform="matrix(1,0,0,-1,0,345.6)" d="M202.59114 38.016H206.16234V260.19987H202.59114Z" fill="#ff7f0e" fill-opacity=".5"/>
<path transform="matrix(1,0,0,-1,0,345.6)" stroke-width=".5212399" stroke-linecap="butt" stroke-miterlimit="10" stroke-linejoin="miter" fill="none" stroke="#000000" d="M202.59114 38.016H206.16234V260.19987H202.59114Z"/>
</g>
<g clip-path="url(#clip_82)">
<path transform="matrix(1,0,0,-1,0,345.6)" d="M206.16234 38.016H209.73354V268.33775H206.16234Z" fill="#ff7f0e" fill-opacity=".5"/>
<path transform="matrix(1,0,0,-1,0,345.6)" stroke-width=".5212399" stroke-linecap="butt" stroke-miterlimit="10" stroke-linejoin="miter" fill="none" stroke="#000000" d="M206.16234 38.016H209.73354V268.33775H206.16234Z"/>
</g>
<g clip-path="url(#clip_83)">
<path transform="matrix(1,0,0,-1,0,345.6)" d="M209.73354 38.016H213.30474V268.2769H209.73354Z" fill="#ff7f0e" fill-opacity=".5"/>
<path transform="matrix(1,0,0,-1,0,345.6)" stroke-width=".5212399" stroke-linecap="butt" stroke-miterlimit="10" stroke-linejoin="miter" fill="none" stroke="#000000" d="M209.73354 38.016H213.30474V268.2769H209.73354Z"/>
</g>
<g clip-path="url(#clip_84)">
<path transform="matrix(1,0,0,-1,0,345.6)" d="M213.30474 38.016H216.87593V266.9988H213.30474Z" fill="#ff7f0e" fill-opacity=".5"/>
<path transform="matrix(1,0,0,-1,0,345.6)" stroke-width=".5212399" stroke-linecap="butt" stroke-miterlimit="10" stroke-linejoin="miter" fill="none" stroke="#000000" d="M213.30474 38.016H216.87593V266.9988H213.30474Z"/>
</g>
<g clip-path="url(#clip_85)">
<path transform="matrix(1,0,0,-1,0,345.6)" d="M216.87593 38.016H220.44715V259.93904H216.87593Z" fill="#ff7f0e" fill-opacity=".5"/>
<path transform="matrix(1,0,0,-1,0,345.6)" stroke-width=".5212399" stroke-linecap="butt" stroke-miterlimit="10" stroke-linejoin="miter" fill="none" stroke="#000000" d="M216.87593 38.016H220.44715V259.93904H216.87593Z"/>
</g>
<g clip-path="url(#clip_86)">
<path transform="matrix(1,0,0,-1,0,345.6)" d="M220.44715 38.016H224.01834V246.6845H220.44715Z" fill="#ff7f0e" fill-opacity=".5"/>
<path transform="matrix(1,0,0,-1,0,345.6)" stroke-width=".5212399" stroke-linecap="butt" stroke-miterlimit="10" stroke-linejoin="miter" fill="none" stroke="#000000" d="M220.44715 38.016H224.01834V246.6845H220.44715Z"/>
</g>
<g clip-path="url(#clip_87)">
<path transform="matrix(1,0,0,-1,0,345.6)" d="M224.01834 38.016H227.58954V228.0134H224.01834Z" fill="#ff7f0e" fill-opacity=".5"/>
<path transform="matrix(1,0,0,-1,0,345.6)" stroke-width=".5212399" stroke-linecap="butt" stroke-miterlimit="10" stroke-linejoin="miter" fill="none" stroke="#000000" d="M224.01834 38.016H227.58954V228.0134H224.01834Z"/>
</g>
<g clip-path="url(#clip_88)">
<path transform="matrix(1,0,0,-1,0,345.6)" d="M227.58954 38.016H231.16074V206.0689H227.58954Z" fill="#ff7f0e" fill-opacity=".5"/>
<path transform="matrix(1,0,0,-1,0,345.6)" stroke-width=".5212399" stroke-linecap="butt" stroke-miterlimit="10" stroke-linejoin="miter" fill="none" stroke="#000000" d="M227.58954 38.016H231.16074V206.0689H227.58954Z"/>
</g>
<g clip-path="url(#clip_89)">
<path transform="matrix(1,0,0,-1,0,345.6)" d="M231.16074 38.016H234.73194V176.26035H231.16074Z" fill="#ff7f0e" fill-opacity=".5"/>
<path transform="matrix(1,0,0,-1,0,345.6)" stroke-width=".5212399" stroke-linecap="butt" stroke-miterlimit="10" stroke-linejoin="miter" fill="none" stroke="#000000" d="M231.16074 38.016H234.73194V176.26035H231.16074Z"/>
</g>
<g clip-path="url(#clip_90)">
<path transform="matrix(1,0,0,-1,0,345.6)" d="M234.73194 38.016H238.30313V148.1385H234.73194Z" fill="#ff7f0e" fill-opacity=".5"/>
<path transform="matrix(1,0,0,-1,0,345.6)" stroke-width=".5212399" stroke-linecap="butt" stroke-miterlimit="10" stroke-linejoin="miter" fill="none" stroke="#000000" d="M234.73194 38.016H238.30313V148.1385H234.73194Z"/>
</g>
<g clip-path="url(#clip_91)">
<path transform="matrix(1,0,0,-1,0,345.6)" d="M238.30313 38.016H241.87433V119.81235H238.30313Z" fill="#ff7f0e" fill-opacity=".5"/>
<path transform="matrix(1,0,0,-1,0,345.6)" stroke-width=".5212399" stroke-linecap="butt" stroke-miterlimit="10" stroke-linejoin="miter" fill="none" stroke="#000000" d="M238.30313 38.016H241.87433V119.81235H238.30313Z"/>
</g>
<g clip-path="url(#clip_92)">
<path transform="matrix(1,0,0,-1,0,345.6)" d="M241.87433 38.016H245.44554V94.20317H241.87433Z" fill="#ff7f0e" fill-opacity=".5"/>
<path transform="matrix(1,0,0,-1,0,345.6)" stroke-width=".5212399" stroke-linecap="butt" stroke-miterlimit="10" stroke-linejoin="miter" fill="none" stroke="#000000" d="M241.87433 38.016H245.44554V94.20317H241.87433Z"/>
</g>
<g clip-path="url(#clip_93)">
<path transform="matrix(1,0,0,-1,0,345.6)" d="M245.44554 38.016H249.01674V74.04099H245.44554Z" fill="#ff7f0e" fill-opacity=".5"/>
<path transform="matrix(1,0,0,-1,0,345.6)" stroke-width=".5212399" stroke-linecap="butt" stroke-miterlimit="10" stroke-linejoin="miter" fill="none" stroke="#000000" d="M245.44554 38.016H249.01674V74.04099H245.44554Z"/>
</g>
<g clip-path="url(#clip_94)">
<path transform="matrix(1,0,0,-1,0,345.6)" d="M249.01674 38.016H252.58794V58.052106H249.01674Z" fill="#ff7f0e" fill-opacity=".5"/>
<path transform="matrix(1,0,0,-1,0,345.6)" stroke-width=".5212399" stroke-linecap="butt" stroke-miterlimit="10" stroke-linejoin="miter" fill="none" stroke="#000000" d="M249.01674 38.016H252.58794V58.052106H249.01674Z"/>
</g>
<g clip-path="url(#clip_95)">
<path transform="matrix(1,0,0,-1,0,345.6)" d="M252.58794 38.016H256.15916V48.084047H252.58794Z" fill="#ff7f0e" fill-opacity=".5"/>
<path transform="matrix(1,0,0,-1,0,345.6)" stroke-width=".5212399" stroke-linecap="butt" stroke-miterlimit="10" stroke-linejoin="miter" fill="none" stroke="#000000" d="M252.58794 38.016H256.15916V48.084047H252.58794Z"/>
</g>
<g clip-path="url(#clip_96)">
<path transform="matrix(1,0,0,-1,0,345.6)" d="M256.15916 38.016H259.73036V42.71529H256.15916Z" fill="#ff7f0e" fill-opacity=".5"/>
<path transform="matrix(1,0,0,-1,0,345.6)" stroke-width=".5212399" stroke-linecap="butt" stroke-miterlimit="10" stroke-linejoin="miter" fill="none" stroke="#000000" d="M256.15916 38.016H259.73036V42.71529H256.15916Z"/>
</g>
<g clip-path="url(#clip_97)">
<path transform="matrix(1,0,0,-1,0,345.6)" d="M259.73036 38.016H263.30155V39.911367H259.73036Z" fill="#ff7f0e" fill-opacity=".5"/>
<path transform="matrix(1,0,0,-1,0,345.6)" stroke-width=".5212399" stroke-linecap="butt" stroke-miterlimit="10" stroke-linejoin="miter" fill="none" stroke="#000000" d="M259.73036 38.016H263.30155V39.911367H259.73036Z"/>
</g>
<g clip-path="url(#clip_98)">
<path transform="matrix(1,0,0,-1,0,345.6)" d="M263.30155 38.016H266.87275V38.65069H263.30155Z" fill="#ff7f0e" fill-opacity=".5"/>
<path transform="matrix(1,0,0,-1,0,345.6)" stroke-width=".5212399" stroke-linecap="butt" stroke-miterlimit="10" stroke-linejoin="miter" fill="none" stroke="#000000" d="M263.30155 38.016H266.87275V38.65069H263.30155Z"/>
</g>
<g clip-path="url(#clip_99)">
<path transform="matrix(1,0,0,-1,0,345.6)" d="M266.87275 38.016H270.44395V38.15076H266.87275Z" fill="#ff7f0e" fill-opacity=".5"/>
<path transform="matrix(1,0,0,-1,0,345.6)" stroke-width=".5212399" stroke-linecap="butt" stroke-miterlimit="10" stroke-linejoin="miter" fill="none" stroke="#000000" d="M266.87275 38.016H270.44395V38.15076H266.87275Z"/>
</g>
<g clip-path="url(#clip_100)">
<path transform="matrix(1,0,0,-1,0,345.6)" d="M270.44395 38.016H274.01515V38.06382H270.44395Z" fill="#ff7f0e" fill-opacity=".5"/>
<path transform="matrix(1,0,0,-1,0,345.6)" stroke-width=".5212399" stroke-linecap="butt" stroke-miterlimit="10" stroke-linejoin="miter" fill="none" stroke="#000000" d="M270.44395 38.016H274.01515V38.06382H270.44395Z"/>
</g>
<g clip-path="url(#clip_101)">
<path transform="matrix(1,0,0,-1,0,345.6)" stroke-width=".8" stroke-linecap="square" stroke-linejoin="round" fill="none" stroke="#bebebe" d="M57.6 38.016V304.128"/>
</g>
<path transform="matrix(1,0,0,-1,0,345.6)" d="M57.6 38.016V34.516"/>
<path transform="matrix(1,0,0,-1,0,345.6)" stroke-width=".8" stroke-linecap="butt" stroke-linejoin="round" fill="none" stroke="#000000" d="M57.6 38.016V34.516"/>
<text xml:space="preserve" transform="matrix(1 0 -0 1 45.459375 322.17778)" font-size="10" font-family="DejaVuSans"><tspan y="0" x="8.378906 14.738907 17.918908">1.5</tspan></text>
<g clip-path="url(#clip_102)">
<path transform="matrix(.01,0,0,-.01,45.459375,322.17778)" d="M106 355H732V272H106V355Z"/>
</g>
<g clip-path="url(#clip_103)">
<path transform="matrix(1,0,0,-1,0,345.6)" stroke-width=".8" stroke-linecap="square" stroke-linejoin="round" fill="none" stroke="#bebebe" d="M117.12 38.016V304.128"/>
</g>
<path transform="matrix(1,0,0,-1,0,345.6)" d="M117.12 38.016V34.516"/>
<path transform="matrix(1,0,0,-1,0,345.6)" stroke-width=".8" stroke-linecap="butt" stroke-linejoin="round" fill="none" stroke="#000000" d="M117.12 38.016V34.516"/>
<text xml:space="preserve" transform="matrix(1 0 -0 1 104.97938 322.17778)" font-size="10" font-family="DejaVuSans"><tspan y="0" x="8.378906 14.738907 17.918908">1.0</tspan></text>
<g clip-path="url(#clip_104)">
<path transform="matrix(.01,0,0,-.01,104.97938,322.17778)" d="M106 355H732V272H106V355Z"/>
</g>
<g clip-path="url(#clip_105)">
<path transform="matrix(1,0,0,-1,0,345.6)" stroke-width=".8" stroke-linecap="square" stroke-linejoin="round" fill="none" stroke="#bebebe" d="M176.64 38.016V304.128"/>
</g>
<path transform="matrix(1,0,0,-1,0,345.6)" d="M176.64 38.016V34.516"/>
<path transform="matrix(1,0,0,-1,0,345.6)" stroke-width=".8" stroke-linecap="butt" stroke-linejoin="round" fill="none" stroke="#000000" d="M176.64 38.016V34.516"/>
<text xml:space="preserve" transform="matrix(1 0 -0 1 164.49938 322.17778)" font-size="10" font-family="DejaVuSans"><tspan y="0" x="8.378906 14.738907 17.918908">0.5</tspan></text>
<g clip-path="url(#clip_106)">
<path transform="matrix(.01,0,0,-.01,164.49938,322.17778)" d="M106 355H732V272H106V355Z"/>
</g>
<g clip-path="url(#clip_107)">
<path transform="matrix(1,0,0,-1,0,345.6)" stroke-width=".8" stroke-linecap="square" stroke-linejoin="round" fill="none" stroke="#bebebe" d="M236.16 38.016V304.128"/>
</g>
<path transform="matrix(1,0,0,-1,0,345.6)" d="M236.16 38.016V34.516"/>
<path transform="matrix(1,0,0,-1,0,345.6)" stroke-width=".8" stroke-linecap="butt" stroke-linejoin="round" fill="none" stroke="#000000" d="M236.16 38.016V34.516"/>
<text xml:space="preserve" transform="matrix(1 0 -0 1 228.20688 322.17778)" font-size="10" font-family="DejaVuSans"><tspan y="0" x="0 6.3600008 9.540001">0.0</tspan></text>
<g clip-path="url(#clip_108)">
<path transform="matrix(1,0,0,-1,0,345.6)" stroke-width=".8" stroke-linecap="square" stroke-linejoin="round" fill="none" stroke="#bebebe" d="M295.68 38.016V304.128"/>
</g>
<path transform="matrix(1,0,0,-1,0,345.6)" d="M295.68 38.016V34.516"/>
<path transform="matrix(1,0,0,-1,0,345.6)" stroke-width=".8" stroke-linecap="butt" stroke-linejoin="round" fill="none" stroke="#000000" d="M295.68 38.016V34.516"/>
<text xml:space="preserve" transform="matrix(1 0 -0 1 287.72688 322.17778)" font-size="10" font-family="DejaVuSans"><tspan y="0" x="0 6.3600008 9.540001">0.5</tspan></text>
<g clip-path="url(#clip_109)">
<path transform="matrix(1,0,0,-1,0,345.6)" stroke-width=".8" stroke-linecap="square" stroke-linejoin="round" fill="none" stroke="#bebebe" d="M355.2 38.016V304.128"/>
</g>
<path transform="matrix(1,0,0,-1,0,345.6)" d="M355.2 38.016V34.516"/>
<path transform="matrix(1,0,0,-1,0,345.6)" stroke-width=".8" stroke-linecap="butt" stroke-linejoin="round" fill="none" stroke="#000000" d="M355.2 38.016V34.516"/>
<text xml:space="preserve" transform="matrix(1 0 -0 1 347.2469 322.17778)" font-size="10" font-family="DejaVuSans"><tspan y="0" x="0 6.3600008 9.540001">1.0</tspan></text>
<g clip-path="url(#clip_110)">
<path transform="matrix(1,0,0,-1,0,345.6)" stroke-width=".8" stroke-linecap="square" stroke-linejoin="round" fill="none" stroke="#bebebe" d="M414.72 38.016V304.128"/>
</g>
<path transform="matrix(1,0,0,-1,0,345.6)" d="M414.72 38.016V34.516"/>
<path transform="matrix(1,0,0,-1,0,345.6)" stroke-width=".8" stroke-linecap="butt" stroke-linejoin="round" fill="none" stroke="#000000" d="M414.72 38.016V34.516"/>
<text xml:space="preserve" transform="matrix(1 0 -0 1 406.76689 322.17778)" font-size="10" font-family="DejaVuSans"><tspan y="0" x="0 6.3600008 9.540001">1.5</tspan></text>
<g clip-path="url(#clip_111)">
<path transform="matrix(1,0,0,-1,0,345.6)" stroke-width=".8" stroke-linecap="square" stroke-linejoin="round" fill="none" stroke="#bebebe" d="M57.6 38.016H414.72"/>
</g>
<path transform="matrix(1,0,0,-1,0,345.6)" d="M57.6 38.016H54.1"/>
<path transform="matrix(1,0,0,-1,0,345.6)" stroke-width=".8" stroke-linecap="butt" stroke-linejoin="round" fill="none" stroke="#000000" d="M57.6 38.016H54.1"/>
<text xml:space="preserve" transform="matrix(1 0 -0 1 44.240625 311.3809)" font-size="10" font-family="DejaVuSans"><tspan y="0" x="0">0</tspan></text>
<g clip-path="url(#clip_112)">
<path transform="matrix(1,0,0,-1,0,345.6)" stroke-width=".8" stroke-linecap="square" stroke-linejoin="round" fill="none" stroke="#bebebe" d="M57.6 81.4877H414.72"/>
</g>
<path transform="matrix(1,0,0,-1,0,345.6)" d="M57.6 81.4877H54.1"/>
<path transform="matrix(1,0,0,-1,0,345.6)" stroke-width=".8" stroke-linecap="butt" stroke-linejoin="round" fill="none" stroke="#000000" d="M57.6 81.4877H54.1"/>
<text xml:space="preserve" transform="matrix(1 0 -0 1 18.803126 267.90919)" font-size="10" font-family="DejaVuSans"><tspan y="0" x="0 6.3600008 12.720001 19.080002 25.440003">10000</tspan></text>
<g clip-path="url(#clip_113)">
<path transform="matrix(1,0,0,-1,0,345.6)" stroke-width=".8" stroke-linecap="square" stroke-linejoin="round" fill="none" stroke="#bebebe" d="M57.6 124.9594H414.72"/>
</g>
<path transform="matrix(1,0,0,-1,0,345.6)" d="M57.6 124.9594H54.1"/>
<path transform="matrix(1,0,0,-1,0,345.6)" stroke-width=".8" stroke-linecap="butt" stroke-linejoin="round" fill="none" stroke="#000000" d="M57.6 124.9594H54.1"/>
<text xml:space="preserve" transform="matrix(1 0 -0 1 18.803126 224.43749)" font-size="10" font-family="DejaVuSans"><tspan y="0" x="0 6.3600008 12.720001 19.080002 25.440003">20000</tspan></text>
<g clip-path="url(#clip_114)">
<path transform="matrix(1,0,0,-1,0,345.6)" stroke-width=".8" stroke-linecap="square" stroke-linejoin="round" fill="none" stroke="#bebebe" d="M57.6 168.43109H414.72"/>
</g>
<path transform="matrix(1,0,0,-1,0,345.6)" d="M57.6 168.43109H54.1"/>
<path transform="matrix(1,0,0,-1,0,345.6)" stroke-width=".8" stroke-linecap="butt" stroke-linejoin="round" fill="none" stroke="#000000" d="M57.6 168.43109H54.1"/>
<text xml:space="preserve" transform="matrix(1 0 -0 1 18.803126 180.96579)" font-size="10" font-family="DejaVuSans"><tspan y="0" x="0 6.3600008 12.720001 19.080002 25.440003">30000</tspan></text>
<g clip-path="url(#clip_115)">
<path transform="matrix(1,0,0,-1,0,345.6)" stroke-width=".8" stroke-linecap="square" stroke-linejoin="round" fill="none" stroke="#bebebe" d="M57.6 211.90279H414.72"/>
</g>
<path transform="matrix(1,0,0,-1,0,345.6)" d="M57.6 211.90279H54.1"/>
<path transform="matrix(1,0,0,-1,0,345.6)" stroke-width=".8" stroke-linecap="butt" stroke-linejoin="round" fill="none" stroke="#000000" d="M57.6 211.90279H54.1"/>
<text xml:space="preserve" transform="matrix(1 0 -0 1 18.803126 137.4941)" font-size="10" font-family="DejaVuSans"><tspan y="0" x="0 6.3600008 12.720001 19.080002 25.440003">40000</tspan></text>
<g clip-path="url(#clip_116)">
<path transform="matrix(1,0,0,-1,0,345.6)" stroke-width=".8" stroke-linecap="square" stroke-linejoin="round" fill="none" stroke="#bebebe" d="M57.6 255.3745H414.72"/>
</g>
<path transform="matrix(1,0,0,-1,0,345.6)" d="M57.6 255.3745H54.1"/>
<path transform="matrix(1,0,0,-1,0,345.6)" stroke-width=".8" stroke-linecap="butt" stroke-linejoin="round" fill="none" stroke="#000000" d="M57.6 255.3745H54.1"/>
<text xml:space="preserve" transform="matrix(1 0 -0 1 18.803126 94.022388)" font-size="10" font-family="DejaVuSans"><tspan y="0" x="0 6.3600008 12.720001 19.080002 25.440003">50000</tspan></text>
<g clip-path="url(#clip_117)">
<path transform="matrix(1,0,0,-1,0,345.6)" stroke-width=".8" stroke-linecap="square" stroke-linejoin="round" fill="none" stroke="#bebebe" d="M57.6 298.8462H414.72"/>
</g>
<path transform="matrix(1,0,0,-1,0,345.6)" d="M57.6 298.8462H54.1"/>
<path transform="matrix(1,0,0,-1,0,345.6)" stroke-width=".8" stroke-linecap="butt" stroke-linejoin="round" fill="none" stroke="#000000" d="M57.6 298.8462H54.1"/>
<text xml:space="preserve" transform="matrix(1 0 -0 1 18.803126 50.55069)" font-size="10" font-family="DejaVuSans"><tspan y="0" x="0 6.3600008 12.720001 19.080002 25.440003">60000</tspan></text>
<text xml:space="preserve" transform="matrix(0 -1 1 0 12.725 189.38738)" font-size="10" font-family="DejaVuSans"><tspan y="0" x="0 6.98 13.1 19.44 25.78">Count</tspan></text>
<path transform="matrix(1,0,0,-1,0,345.6)" stroke-width=".8" stroke-linecap="square" stroke-miterlimit="10" stroke-linejoin="miter" fill="none" stroke="#000000" d="M57.6 38.016V304.128"/>
<path transform="matrix(1,0,0,-1,0,345.6)" stroke-width=".8" stroke-linecap="square" stroke-miterlimit="10" stroke-linejoin="miter" fill="none" stroke="#000000" d="M414.72 38.016V304.128"/>
<path transform="matrix(1,0,0,-1,0,345.6)" stroke-width=".8" stroke-linecap="square" stroke-miterlimit="10" stroke-linejoin="miter" fill="none" stroke="#000000" d="M57.6 38.016H414.72"/>
<path transform="matrix(1,0,0,-1,0,345.6)" stroke-width=".8" stroke-linecap="square" stroke-miterlimit="10" stroke-linejoin="miter" fill="none" stroke="#000000" d="M57.6 304.128H414.72"/>
<text xml:space="preserve" transform="matrix(1 0 -0 1 187.61313 35.472017)" font-size="12" font-family="DejaVuSans"><tspan y="0" x="0 7.2360007 16.596 23.28 27.096 36.336004 39.672006 45.924005 50.628007 55.560007 58.896005 66.51601 74.12401 78.82801 82.16401 89.50801">P&#x0026;L Distribution</tspan></text>
<g>
<path transform="matrix(1,0,0,-1,0,345.6)" d="M203.82938 266.78425H407.72C409.05335 266.78425 409.72 267.45094 409.72 268.78425V297.128C409.72 298.46134 409.05335 299.128 407.72 299.128H203.82938C202.49605 299.128 201.82938 298.46134 201.82938 297.128V268.78425C201.82938 267.45094 202.49605 266.78425 203.82938 266.78425Z" fill="#ffffff" fill-opacity=".8"/>
<path transform="matrix(1,0,0,-1,0,345.6)" stroke-width="1" stroke-linecap="butt" stroke-miterlimit="10" stroke-linejoin="miter" fill="none" stroke="#d5d6d5" stroke-opacity=".8" d="M203.82938 266.78425H407.72C409.05335 266.78425 409.72 267.45094 409.72 268.78425V297.128C409.72 298.46134 409.05335 299.128 407.72 299.128H203.82938C202.49605 299.128 201.82938 298.46134 201.82938 297.128V268.78425C201.82938 267.45094 202.49605 266.78425 203.82938 266.78425Z"/>
</g>
<path transform="matrix(1,0,0,-1,0,345.6)" d="M205.82938 287.53425H225.82938V294.53425H205.82938Z" fill="#1f77b4" fill-opacity=".5"/>
<path transform="matrix(1,0,0,-1,0,345.6)" stroke-width=".73785057" stroke-linecap="butt" stroke-miterlimit="10" stroke-linejoin="miter" fill="none" stroke="#000000" d="M205.82938 287.53425H225.82938V294.53425H205.82938Z"/>
<text xml:space="preserve" transform="matrix(1 0 -0 1 233.82938 58.065767)" font-size="10" font-family="DejaVuSans"><tspan y="0" x="0 6.3500006 12.5 15.280001 19.2 25.330002 28.510003 31.690003 39.170003 42.54 45.72 52.08 58.440004 64.8 71.16 77.520008 83.880008 90.240009 93.420009 96.600009 101.99813 108.11813 113.32813 118.53813 121.908138 125.088138 128.69814 135.05814 138.23813 144.59813">delta, N: 1000000, Loss: -1.76</tspan></text>
<path transform="matrix(1,0,0,-1,0,345.6)" d="M205.82938 272.86238H225.82938V279.86238H205.82938Z" fill="#ff7f0e" fill-opacity=".5"/>
<path transform="matrix(1,0,0,-1,0,345.6)" stroke-width=".5212399" stroke-linecap="butt" stroke-miterlimit="10" stroke-linejoin="miter" fill="none" stroke="#000000" d="M205.82938 272.86238H225.82938V279.86238H205.82938Z"/>
<text xml:space="preserve" transform="matrix(1 0 -0 1 233.82938 72.73764)" font-size="10" font-family="DejaVuSans"><tspan y="0" x="0 3.8912502 10.04125 15.54125 21.88125 25.819376 29.710627 35.860628 42.200628 46.12063 49.30063 52.48063 59.96063 63.330629 66.51063 72.87063 79.23063 85.59063 91.95063 98.31063 104.67063 111.03063 114.21063 117.39063 122.78876 128.90876 134.11876 139.32877 142.69876 145.87876 149.48876 155.84876 159.02875 165.38875">recurrent, N: 1000000, Loss: -1.61</tspan></text>
</svg>
