<svg xmlns="http://www.w3.org/2000/svg" xmlns:xlink="http://www.w3.org/1999/xlink" version="1.1" width="460.8pt" height="345.6pt" viewBox="0 0 460.8 345.6">
<defs>
<clipPath id="clip_0">
<path transform="matrix(1,0,0,-1,0,345.6)" d="M57.6 38.016H414.72V304.128H57.6Z"/>
</clipPath>
<clipPath id="clip_1">
<path transform="matrix(1,0,0,-1,0,345.6)" d="M57.6 38.016H414.72V304.128H57.6Z"/>
</clipPath>
<clipPath id="clip_2">
<path transform="matrix(1,0,0,-1,0,345.6)" d="M57.6 38.016H414.72V304.128H57.6Z"/>
</clipPath>
<clipPath id="clip_3">
<path transform="matrix(1,0,0,-1,0,345.6)" d="M57.6 38.016H414.72V304.128H57.6Z"/>
</clipPath>
<clipPath id="clip_4">
<path transform="matrix(1,0,0,-1,0,345.6)" d="M57.6 38.016H414.72V304.128H57.6Z"/>
</clipPath>
<clipPath id="clip_5">
<path transform="matrix(1,0,0,-1,0,345.6)" d="M57.6 38.016H414.72V304.128H57.6Z"/>
</clipPath>
<clipPath id="clip_6">
<path transform="matrix(1,0,0,-1,0,345.6)" d="M57.6 38.016H414.72V304.128H57.6Z"/>
</clipPath>
<clipPath id="clip_7">
<path transform="matrix(1,0,0,-1,0,345.6)" d="M57.6 38.016H414.72V304.128H57.6Z"/>
</clipPath>
<clipPath id="clip_8">
<path transform="matrix(1,0,0,-1,0,345.6)" d="M57.6 38.016H414.72V304.128H57.6Z"/>
</clipPath>
<clipPath id="clip_9">
<path transform="matrix(1,0,0,-1,0,345.6)" d="M57.6 38.016H414.72V304.128H57.6Z"/>
</clipPath>
<clipPath id="clip_10">
<path transform="matrix(1,0,0,-1,0,345.6)" d="M57.6 38.016H414.72V304.128H57.6Z"/>
</clipPath>
<clipPath id="clip_11">
<path transform="matrix(1,0,0,-1,0,345.6)" d="M57.6 38.016H414.72V304.128H57.6Z"/>
</clipPath>
</defs>
<path transform="matrix(1,0,0,-1,0,345.6)" d="M0 0H460.8V345.6H0Z" fill="#ffffff"/>
<path transform="matrix(1,0,0,-1,0,345.6)" d="M57.6 38.016H414.72V304.128H57.6Z" fill="#ffffff"/>
<g clip-path="url(#clip_0)">
<path transform="matrix(1,0,0,-1,0,345.6)" stroke-width=".8" stroke-linecap="square" stroke-linejoin="round" fill="none" stroke="#bebebe" d="M73.832729 38.016V304.128"/>
</g>
<path transform="matrix(1,0,0,-1,0,345.6)" d="M73.832729 38.016V34.516"/>
<path transform="matrix(1,0,0,-1,0,345.6)" stroke-width=".8" stroke-linecap="butt" stroke-linejoin="round" fill="none" stroke="#000000" d="M73.832729 38.016V34.516"/>
<text xml:space="preserve" transform="matrix(1 0 -0 1 70.65304 322.17778)" font-size="10" font-family="DejaVuSans"><tspan y="0" x="0">0</tspan></text>
<g clip-path="url(#clip_1)">
<path transform="matrix(1,0,0,-1,0,345.6)" stroke-width=".8" stroke-linecap="square" stroke-linejoin="round" fill="none" stroke="#bebebe" d="M114.61848 38.016V304.128"/>
</g>
<path transform="matrix(1,0,0,-1,0,345.6)" d="M114.61848 38.016V34.516"/>
<path transform="matrix(1,0,0,-1,0,345.6)" stroke-width=".8" stroke-linecap="butt" stroke-linejoin="round" fill="none" stroke="#000000" d="M114.61848 38.016V34.516"/>
<text xml:space="preserve" transform="matrix(1 0 -0 1 108.2591 322.17778)" font-size="10" font-family="DejaVuSans"><tspan y="0" x="0 6.3600008">25</tspan></text>
<g clip-path="url(#clip_2)">
<path transform="matrix(1,0,0,-1,0,345.6)" stroke-width=".8" stroke-linecap="square" stroke-linejoin="round" fill="none" stroke="#bebebe" d="M155.40422 38.016V304.128"/>
</g>
<path transform="matrix(1,0,0,-1,0,345.6)" d="M155.40422 38.016V34.516"/>
<path transform="matrix(1,0,0,-1,0,345.6)" stroke-width=".8" stroke-linecap="butt" stroke-linejoin="round" fill="none" stroke="#000000" d="M155.40422 38.016V34.516"/>
<text xml:space="preserve" transform="matrix(1 0 -0 1 149.04485 322.17778)" font-size="10" font-family="DejaVuSans"><tspan y="0" x="0 6.3600008">50</tspan></text>
<g clip-path="url(#clip_3)">
<path transform="matrix(1,0,0,-1,0,345.6)" stroke-width=".8" stroke-linecap="square" stroke-linejoin="round" fill="none" stroke="#bebebe" d="M196.18997 38.016V304.128"/>
</g>
<path transform="matrix(1,0,0,-1,0,345.6)" d="M196.18997 38.016V34.516"/>
<path transform="matrix(1,0,0,-1,0,345.6)" stroke-width=".8" stroke-linecap="butt" stroke-linejoin="round" fill="none" stroke="#000000" d="M196.18997 38.016V34.516"/>
<text xml:space="preserve" transform="matrix(1 0 -0 1 189.8306 322.17778)" font-size="10" font-family="DejaVuSans"><tspan y="0" x="0 6.3600008">75</tspan></text>
<g clip-path="url(#clip_4)">
<path transform="matrix(1,0,0,-1,0,345.6)" stroke-width=".8" stroke-linecap="square" stroke-linejoin="round" fill="none" stroke="#bebebe" d="M236.97571 38.016V304.128"/>
</g>
<path transform="matrix(1,0,0,-1,0,345.6)" d="M236.97571 38.016V34.516"/>
<path transform="matrix(1,0,0,-1,0,345.6)" stroke-width=".8" stroke-linecap="butt" stroke-linejoin="round" fill="none" stroke="#000000" d="M236.97571 38.016V34.516"/>
<text xml:space="preserve" transform="matrix(1 0 -0 1 227.43665 322.17778)" font-size="10" font-family="DejaVuSans"><tspan y="0" x="0 6.3600008 12.720001">100</tspan></text>
<g clip-path="url(#clip_5)">
<path transform="matrix(1,0,0,-1,0,345.6)" stroke-width=".8" stroke-linecap="square" stroke-linejoin="round" fill="none" stroke="#bebebe" d="M277.76148 38.016V304.128"/>
</g>
<path transform="matrix(1,0,0,-1,0,345.6)" d="M277.76148 38.016V34.516"/>
<path transform="matrix(1,0,0,-1,0,345.6)" stroke-width=".8" stroke-linecap="butt" stroke-linejoin="round" fill="none" stroke="#000000" d="M277.76148 38.016V34.516"/>
<text xml:space="preserve" transform="matrix(1 0 -0 1 268.2224 322.17778)" font-size="10" font-family="DejaVuSans"><tspan y="0" x="0 6.3600008 12.720001">125</tspan></text>
<g clip-path="url(#clip_6)">
<path transform="matrix(1,0,0,-1,0,345.6)" stroke-width=".8" stroke-linecap="square" stroke-linejoin="round" fill="none" stroke="#bebebe" d="M318.5472 38.016V304.128"/>
</g>
<path transform="matrix(1,0,0,-1,0,345.6)" d="M318.5472 38.016V34.516"/>
<path transform="matrix(1,0,0,-1,0,345.6)" stroke-width=".8" stroke-linecap="butt" stroke-linejoin="round" fill="none" stroke="#000000" d="M318.5472 38.016V34.516"/>
<text xml:space="preserve" transform="matrix(1 0 -0 1 309.00816 322.17778)" font-size="10" font-family="DejaVuSans"><tspan y="0" x="0 6.3600008 12.720001">150</tspan></text>
<g clip-path="url(#clip_7)">
<path transform="matrix(1,0,0,-1,0,345.6)" stroke-width=".8" stroke-linecap="square" stroke-linejoin="round" fill="none" stroke="#bebebe" d="M359.33296 38.016V304.128"/>
</g>
<path transform="matrix(1,0,0,-1,0,345.6)" d="M359.33296 38.016V34.516"/>
<path transform="matrix(1,0,0,-1,0,345.6)" stroke-width=".8" stroke-linecap="butt" stroke-linejoin="round" fill="none" stroke="#000000" d="M359.33296 38.016V34.516"/>
<text xml:space="preserve" transform="matrix(1 0 -0 1 349.79389 322.17778)" font-size="10" font-family="DejaVuSans"><tspan y="0" x="0 6.3600008 12.720001">175</tspan></text>
<g clip-path="url(#clip_8)">
<path transform="matrix(1,0,0,-1,0,345.6)" stroke-width=".8" stroke-linecap="square" stroke-linejoin="round" fill="none" stroke="#bebebe" d="M400.1187 38.016V304.128"/>
</g>
<path transform="matrix(1,0,0,-1,0,345.6)" d="M400.1187 38.016V34.516"/>
<path transform="matrix(1,0,0,-1,0,345.6)" stroke-width=".8" stroke-linecap="butt" stroke-linejoin="round" fill="none" stroke="#000000" d="M400.1187 38.016V34.516"/>
<text xml:space="preserve" transform="matrix(1 0 -0 1 390.57966 322.17778)" font-size="10" font-family="DejaVuSans"><tspan y="0" x="0 6.3600008 12.720001">200</tspan></text>
<text xml:space="preserve" transform="matrix(1 0 -0 1 220.8475 335.84965)" font-size="10" font-family="DejaVuSans"><tspan y="0" x="0 6.32 12.67 18.79 24.29">Epoch</tspan></text>
<g clip-path="url(#clip_9)">
<path transform="matrix(1,0,0,-1,0,345.6)" stroke-width=".8" stroke-linecap="square" stroke-linejoin="round" fill="none" stroke="#bebebe" d="M57.6 59.47774H414.72"/>
</g>
<path transform="matrix(1,0,0,-1,0,345.6)" d="M57.6 59.47774H54.1"/>
<path transform="matrix(1,0,0,-1,0,345.6)" stroke-width=".8" stroke-linecap="butt" stroke-linejoin="round" fill="none" stroke="#000000" d="M57.6 59.47774H54.1"/>
<text xml:space="preserve" transform="matrix(1 0 -0 1 32.6 290.5832)" font-size="10" font-family="DejaVuSans"><tspan y="-.9765625" x="0 6.3623049">10</tspan></text>
<text xml:space="preserve" transform="matrix(1 0 -0 1 32.6 290.5832)" font-size="7" font-family="DejaVuSans"><tspan y="-4.8046877" x="12.8203129">0</tspan></text>
<g clip-path="url(#clip_10)">
<path transform="matrix(1,0,0,-1,0,345.6)" stroke-width=".8" stroke-linecap="square" stroke-linejoin="round" fill="none" stroke="#bebebe" d="M57.6 197.699H414.72"/>
</g>
<path transform="matrix(1,0,0,-1,0,345.6)" d="M57.6 197.699H54.1"/>
<path transform="matrix(1,0,0,-1,0,345.6)" stroke-width=".8" stroke-linecap="butt" stroke-linejoin="round" fill="none" stroke="#000000" d="M57.6 197.699H54.1"/>
<text xml:space="preserve" transform="matrix(1 0 -0 1 32.6 151.86194)" font-size="10" font-family="DejaVuSans"><tspan y="-.0640625" x="0 6.3623049">10</tspan></text>
<text xml:space="preserve" transform="matrix(1 0 -0 1 32.6 151.86194)" font-size="7" font-family="DejaVuSans"><tspan y="-3.8921877" x="12.8203129">1</tspan></text>
<path transform="matrix(1,0,0,-1,0,345.6)" d="M57.6 38.066999H55.6"/>
<path transform="matrix(1,0,0,-1,0,345.6)" stroke-width=".6" stroke-linecap="butt" stroke-linejoin="round" fill="none" stroke="#000000" d="M57.6 38.066999H55.6"/>
<path transform="matrix(1,0,0,-1,0,345.6)" d="M57.6 46.082719H55.6"/>
<path transform="matrix(1,0,0,-1,0,345.6)" stroke-width=".6" stroke-linecap="butt" stroke-linejoin="round" fill="none" stroke="#000000" d="M57.6 46.082719H55.6"/>
<path transform="matrix(1,0,0,-1,0,345.6)" d="M57.6 53.153085H55.6"/>
<path transform="matrix(1,0,0,-1,0,345.6)" stroke-width=".6" stroke-linecap="butt" stroke-linejoin="round" fill="none" stroke="#000000" d="M57.6 53.153085H55.6"/>
<path transform="matrix(1,0,0,-1,0,345.6)" d="M57.6 101.08649H55.6"/>
<path transform="matrix(1,0,0,-1,0,345.6)" stroke-width=".6" stroke-linecap="butt" stroke-linejoin="round" fill="none" stroke="#000000" d="M57.6 101.08649H55.6"/>
<path transform="matrix(1,0,0,-1,0,345.6)" d="M57.6 125.42605H55.6"/>
<path transform="matrix(1,0,0,-1,0,345.6)" stroke-width=".6" stroke-linecap="butt" stroke-linejoin="round" fill="none" stroke="#000000" d="M57.6 125.42605H55.6"/>
<path transform="matrix(1,0,0,-1,0,345.6)" d="M57.6 142.69524H55.6"/>
<path transform="matrix(1,0,0,-1,0,345.6)" stroke-width=".6" stroke-linecap="butt" stroke-linejoin="round" fill="none" stroke="#000000" d="M57.6 142.69524H55.6"/>
<path transform="matrix(1,0,0,-1,0,345.6)" d="M57.6 156.09026H55.6"/>
<path transform="matrix(1,0,0,-1,0,345.6)" stroke-width=".6" stroke-linecap="butt" stroke-linejoin="round" fill="none" stroke="#000000" d="M57.6 156.09026H55.6"/>
<path transform="matrix(1,0,0,-1,0,345.6)" d="M57.6 167.03479H55.6"/>
<path transform="matrix(1,0,0,-1,0,345.6)" stroke-width=".6" stroke-linecap="butt" stroke-linejoin="round" fill="none" stroke="#000000" d="M57.6 167.03479H55.6"/>
<path transform="matrix(1,0,0,-1,0,345.6)" d="M57.6 176.28826H55.6"/>
<path transform="matrix(1,0,0,-1,0,345.6)" stroke-width=".6" stroke-linecap="butt" stroke-linejoin="round" fill="none" stroke="#000000" d="M57.6 176.28826H55.6"/>
<path transform="matrix(1,0,0,-1,0,345.6)" d="M57.6 184.30399H55.6"/>
<path transform="matrix(1,0,0,-1,0,345.6)" stroke-width=".6" stroke-linecap="butt" stroke-linejoin="round" fill="none" stroke="#000000" d="M57.6 184.30399H55.6"/>
<path transform="matrix(1,0,0,-1,0,345.6)" d="M57.6 191.37435H55.6"/>
<path transform="matrix(1,0,0,-1,0,345.6)" stroke-width=".6" stroke-linecap="butt" stroke-linejoin="round" fill="none" stroke="#000000" d="M57.6 191.37435H55.6"/>
<path transform="matrix(1,0,0,-1,0,345.6)" d="M57.6 239.30776H55.6"/>
<path transform="matrix(1,0,0,-1,0,345.6)" stroke-width=".6" stroke-linecap="butt" stroke-linejoin="round" fill="none" stroke="#000000" d="M57.6 239.30776H55.6"/>
<path transform="matrix(1,0,0,-1,0,345.6)" d="M57.6 263.6473H55.6"/>
<path transform="matrix(1,0,0,-1,0,345.6)" stroke-width=".6" stroke-linecap="butt" stroke-linejoin="round" fill="none" stroke="#000000" d="M57.6 263.6473H55.6"/>
<path transform="matrix(1,0,0,-1,0,345.6)" d="M57.6 280.9165H55.6"/>
<path transform="matrix(1,0,0,-1,0,345.6)" stroke-width=".6" stroke-linecap="butt" stroke-linejoin="round" fill="none" stroke="#000000" d="M57.6 280.9165H55.6"/>
<path transform="matrix(1,0,0,-1,0,345.6)" d="M57.6 294.31153H55.6"/>
<path transform="matrix(1,0,0,-1,0,345.6)" stroke-width=".6" stroke-linecap="butt" stroke-linejoin="round" fill="none" stroke="#000000" d="M57.6 294.31153H55.6"/>
<text xml:space="preserve" transform="matrix(0 -1 1 0 26.521876 185.53582)" font-size="10" font-family="DejaVuSans"><tspan y="0" x="0 5.3981258 11.518126 16.728127">Loss</tspan></text>
<g clip-path="url(#clip_11)">
<path transform="matrix(1,0,0,-1,0,345.6)" stroke-width="1.5" stroke-linecap="square" stroke-linejoin="round" fill="none" stroke="#1f77b4" d="M73.832729 292.032 75.46416 264.39479 77.09559 249.8776 78.72702 196.52455 80.358448 188.99994 81.989879 243.8253 83.62131 228.36914 85.25274 190.86623 86.88416 171.37943 88.515598 193.91567 90.147029 190.94338 91.77846 187.6151 93.40989 198.90819 95.04131 191.0813 96.672748 197.31734 98.30418 200.17238 99.93561 200.54074 101.56703 194.57877 103.19846 190.17684 104.829898 188.85019 106.46133 177.04125 108.09276 185.98412 109.72418 168.75908 111.35561 168.5853 112.987049 170.25005 114.61848 166.72315 116.2499 163.7145 117.88133 160.95792 119.512767 169.15869 121.144199 169.61118 122.77563 161.10558 124.40705 155.50672 126.03848 157.48267 127.669918 156.46314 129.30135 156.54026 130.93277 162.30786 132.56421 155.88204 134.19564 162.80019 135.82706 151.58342 137.4585 149.3108 139.08992 147.24422 140.72136 143.72978 142.35279 142.38182 143.9842 140.3938 145.61565 132.16736 147.24707 128.16983 148.87851 131.04563 150.50994 129.42404 152.14136 134.21088 153.7728 121.96104 155.40422 129.18618 157.03565 129.30986 158.66709 118.15769 160.29851 115.665 161.92995 112.054698 163.56137 111.24506 165.1928 110.62058 166.82424 113.40754 168.45566 110.86209 170.0871 107.50118 171.71852 98.72411 173.34995 100.3381 174.98139 93.82605 176.61281 103.277828 178.24423 91.27507 179.87567 93.840389 181.5071 91.5845 183.13854 87.556758 184.76996 96.81607 186.40139 95.82483 188.03282 106.71004 189.66425 103.22168 191.29569 100.94085 192.92711 98.0306 194.55854 88.91634 196.18997 85.765727 197.8214 111.022068 199.45284 97.32756 201.08426 104.41859 204.34712 131.28188 207.60997 139.55762 209.24141 140.15251 210.87284 146.57306 212.50428 145.67212 214.1357 147.14824 215.76712 142.36769 217.39856 132.9073 219.02999 133.49494 220.66143 130.94817 222.29285 120.914829 223.92427 116.72414 225.55571 101.325069 227.18714 94.45729 228.81858 83.67761 230.45 145.11066 232.08142 126.148448 233.71286 81.48088 235.34429 92.35533 236.97571 99.2006 238.60715 102.55252 240.23857 102.82983 241.87001 99.25553 243.50144 99.25477 245.13286 86.336078 246.7643 77.432 248.39572 102.32087 250.02716 86.136669 251.65859 71.91291 253.29001 81.52592 254.92145 80.41023 256.5529 79.70887 258.1843 80.29589 259.81575 81.316219 261.44718 75.20198 263.07859 70.96193 264.71003 80.01034 266.34147 96.84855 267.97288 80.23638 269.6043 75.66557 271.23576 79.8093 272.86717 82.74655 274.4986 87.09928 276.13005 84.86419 277.76148 88.19039 279.39289 83.883228 281.02433 81.83971 282.65577 84.76471 284.28718 90.314838 285.9186 83.3435 287.55006 72.72779 289.18147 75.69401 290.8129 69.91208 292.44435 77.49454 294.07579 71.01879 295.70719 78.947689 297.33863 69.26022 298.97007 78.039699 300.60148 68.90581 302.2329 82.7377 303.86436 70.973918 305.49577 69.82327 307.1272 69.00215 308.75865 65.1288 310.39006 73.84909 312.02149 71.23211 313.65293 77.65211 315.28437 64.576938 316.91578 63.406549 318.5472 66.7056 320.17866 58.349058 321.81007 56.965658 323.4415 61.05752 325.07295 70.90884 326.70436 65.059749 328.3358 68.7841 329.96723 67.886768 331.59864 64.336238 333.23008 61.851926 334.8615 64.49965 336.49296 68.550189 338.12437 60.68214 339.7558 58.681226 341.38725 59.34092 343.01866 59.63593 344.6501 60.208314 346.28153 56.80995 347.91294 57.07671 349.54438 60.734758 351.1758 59.508878 352.80726 60.42656 354.43867 58.43432 356.0701 53.221044 357.70155 57.245725 359.33296 55.715665 362.59584 57.45163 364.22724 56.731679 365.85868 52.420335 367.4901 50.112 369.12153 59.15106 370.75297 55.656454 372.3844 57.716398 374.01585 51.267499 375.64726 60.170438 377.2787 55.92816 378.91014 57.59554 380.54154 59.516916 382.17298 58.48661 383.8044 53.676828 385.43583 58.576879 387.06727 53.283525 388.6987 52.310304 390.3301 52.973695 391.96156 54.64263 393.593 53.99148 395.22444 54.565305 396.85585 60.670125 398.48728 53.069868"/>
</g>
<path transform="matrix(1,0,0,-1,0,345.6)" stroke-width=".8" stroke-linecap="square" stroke-miterlimit="10" stroke-linejoin="miter" fill="none" stroke="#000000" d="M57.6 38.016V304.128"/>
<path transform="matrix(1,0,0,-1,0,345.6)" stroke-width=".8" stroke-linecap="square" stroke-miterlimit="10" stroke-linejoin="miter" fill="none" stroke="#000000" d="M414.72 38.016V304.128"/>
<path transform="matrix(1,0,0,-1,0,345.6)" stroke-width=".8" stroke-linecap="square" stroke-miterlimit="10" stroke-linejoin="miter" fill="none" stroke="#000000" d="M57.6 38.016H414.72"/>
<path transform="matrix(1,0,0,-1,0,345.6)" stroke-width=".8" stroke-linecap="square" stroke-miterlimit="10" stroke-linejoin="miter" fill="none" stroke="#000000" d="M57.6 304.128H414.72"/>
<text xml:space="preserve" transform="matrix(1 0 -0 1 197.42563 35.472017)" font-size="12" font-family="DejaVuSans"><tspan y="0" x="0 5.582 10.514 17.87 21.206002 28.814002 32.15 39.758005 47.378007 51.194009 57.674886 65.01888 71.27088">Training Loss</tspan></text>
</svg>
